<?xml version="1.0" standalone="no"?>
<!DOCTYPE svg PUBLIC "-//W3C//DTD SVG 1.1//EN" "http://www.w3.org/Graphics/SVG/1.1/DTD/svg11.dtd" >
<svg xmlns="http://www.w3.org/2000/svg">
<metadata>Generated by IcoMoon</metadata>
<defs>
<font id="icomoon" horiz-adv-x="1024">
<font-face units-per-em="1024" ascent="960" descent="-64" />
<missing-glyph horiz-adv-x="1024" />
<glyph unicode="&#x20;" horiz-adv-x="512" d="" />
<glyph unicode="&#x23f3;" glyph-name="clean" horiz-adv-x="925" d="M481.934 894.638v-370.383h-60.133v370.383h60.133zM503.721 960h-103.707c-24.066 0-43.574-19.509-43.574-43.574v0-435.745c0-20.262 13.726-21.787 32.463-21.787h125.93c18.737 0 32.463 1.525 32.463 21.787v435.745c0 24.066-19.509 43.574-43.574 43.574v0zM647.952 458.894c8.052-10.727 15.326-22.891 21.272-35.792l0.515-1.247 6.318-12.201 181.27-383.673c0.896-2.293 1.415-4.948 1.415-7.724 0-3.709-0.927-7.202-2.561-10.259l0.057 0.117c-1.569-3.499-4.798-6.005-8.657-6.53l-0.058-0.006h-769.961c-4.156 0.523-7.608 3.108-9.337 6.683l-0.031 0.071c-1.912 3.175-3.043 7.008-3.043 11.106 0 2.66 0.477 5.208 1.349 7.564l-0.049-0.151 161.008 382.802v2.614l6.536 9.586c6.462 14.148 13.736 26.311 22.162 37.561l-0.375-0.523h392.17zM647.952 524.255h-393.477c-45.971 0-62.965-41.178-84.099-82.356-1.089-2.179-2.179-4.575-3.268-6.972l-161.008-383.673c-4.24-9.667-6.708-20.935-6.708-32.779 0-41.609 30.454-76.105 70.289-82.414l0.474-0.062h785.212c39.701 6.361 69.669 40.367 69.669 81.373 0 12.699-2.874 24.726-8.007 35.468l0.214-0.497-182.141 386.070c-21.787 42.267-38.346 85.842-85.842 85.842zM233.995 241.021h65.362v-239.66h-65.362v239.66zM430.080 241.021h65.362v-239.66h-65.362v239.66zM626.165 241.021h65.362v-239.66h-65.362v239.66z" />
<glyph unicode="&#xe900;" glyph-name="save" d="M934.268 923.052h-844.536c-42.227 0-79.175-36.948-79.175-79.175v-791.753c0-42.227 36.948-79.175 79.175-79.175h844.536c42.227 0 79.175 36.948 79.175 79.175v791.753c0 42.227-36.948 79.175-79.175 79.175zM749.526 870.268c15.835 0 26.392-10.557 26.392-26.392v-211.134c0-15.835-10.557-26.392-26.392-26.392h-475.052c-15.835 0-26.392 10.557-26.392 26.392v211.134c0 15.835 10.557 26.392 26.392 26.392h475.052zM960.66 52.124c0-15.835-10.557-26.392-26.392-26.392h-844.536c-15.835 0-26.392 10.557-26.392 26.392v791.753c0 15.835 10.557 26.392 26.392 26.392h110.845c-5.278-10.557-5.278-15.835-5.278-26.392v-211.134c0-42.227 36.948-79.175 79.175-79.175h475.052c42.227 0 79.175 36.948 79.175 79.175v211.134c0 10.557 0 15.835-5.278 26.392h110.845c15.835 0 26.392-10.557 26.392-26.392v-791.753zM654.515 648.577c52.784 0 89.732 42.227 89.732 89.732s-42.227 89.732-89.732 89.732-89.732-42.227-89.732-89.732 36.948-89.732 89.732-89.732zM654.515 775.258c21.113 0 36.948-15.835 36.948-36.948s-15.835-36.948-36.948-36.948c-21.113 0-36.948 15.835-36.948 36.948s15.835 36.948 36.948 36.948z" />
<glyph unicode="&#xe901;" glyph-name="scan" d="M102.4 857.6h256v102.4h-358.4v-358.4h102.4zM665.6 960h353.28v-97.28h-353.28v97.28zM921.6 857.6h102.4v-256h-102.4v256zM921.6 38.4h-256v-102.4h358.4v358.4h-102.4zM102.4 294.4h-102.4v-358.4h358.4v102.4h-256zM256 499.2h512v-102.4h-512v102.4z" />
<glyph unicode="&#xe902;" glyph-name="screen" d="M0 74.24v742.4l30.72-10.24c476.16-117.76 957.44 0 962.56 0l30.72 10.24v-732.16l-30.72 10.24c-614.4 168.96-952.32 5.12-952.32 0l-40.96-20.48zM465.92 222.72c138.24 0 307.2-15.36 506.88-71.68v599.040c-112.64-25.6-517.12-92.16-921.6 0v-593.92c61.44 20.48 199.68 66.56 414.72 66.56z" />
<glyph unicode="&#xe903;" glyph-name="search" d="M1024 20.862l-164.066 158.409c62.232 79.204 101.834 186.696 101.834 299.845 0 265.901-214.983 480.884-480.884 480.884s-480.884-214.983-480.884-480.884 214.983-480.884 480.884-480.884c113.149 0 214.983 39.602 294.188 101.834l164.066-158.409 84.862 79.204zM113.149 473.459c0 203.669 164.066 367.735 367.735 367.735s367.735-164.066 367.735-367.735-164.066-367.735-367.735-367.735-367.735 164.066-367.735 367.735z" />
<glyph unicode="&#xe904;" glyph-name="setting" d="M507.215 644.187c-105.271 0-191.402-86.131-191.402-191.402s86.131-191.402 191.402-191.402 191.402 86.131 191.402 191.402-86.131 191.402-191.402 191.402zM507.215 309.234c-81.346 0-143.551 62.206-143.551 143.551s62.206 143.551 143.551 143.551 143.551-62.206 143.551-143.551c0-81.346-62.206-143.551-143.551-143.551zM913.944 476.71v0c-4.785 90.916-43.065 181.832-105.271 248.822l71.776 66.991-33.495 33.495-71.776-71.776c-71.776 62.206-162.692 100.486-267.963 100.486l9.57-4.785v100.486h-47.85v-105.271l38.28 9.57c-100.486 0-196.187-38.28-267.963-100.486l-71.776 76.561-28.71-38.28 66.991-66.991c-57.421-66.991-95.701-153.121-100.486-248.822h-105.271v-47.85h105.271c4.785-95.701 43.065-181.832 100.486-244.037l-71.776-66.991 33.495-33.495 71.776 66.991c62.206-57.421 143.551-90.916 234.467-100.486v-95.701h47.85v95.701c100.486 4.785 186.617 43.065 258.393 100.486l71.776-66.991 33.495 33.495-71.776 66.991c62.206 66.991 100.486 153.121 105.271 248.822v-4.785h100.486v47.85h-105.271zM507.215 93.907c-196.187 0-358.879 162.692-358.879 358.879s162.692 358.879 358.879 358.879 358.879-162.692 358.879-358.879-157.907-358.879-358.879-358.879z" />
<glyph unicode="&#xe905;" glyph-name="tag" d="M587.453-58.611c-37.726 0-75.453 16.168-102.4 43.116l-404.211 404.211c-80.842 75.453-75.453 156.295-75.453 161.684v274.863c16.168 102.4 86.232 129.347 123.958 134.737h10.779c0 0 177.853 0 269.474 0 64.674 0 123.958-37.726 156.295-70.063 5.389-5.389 10.779-5.389 10.779-10.779l398.821-398.821c26.947-26.947 43.116-64.674 43.116-102.4s-16.168-75.453-43.116-102.4l-285.642-285.642c-26.947-37.726-64.674-48.505-102.4-48.505zM129.347 900.716c-5.389 0-59.284-5.389-75.453-80.842v-274.863c0-5.389-5.389-64.674 64.674-123.958l404.211-404.211c37.726-37.726 97.011-37.726 134.737 0l285.642 285.642c16.168 16.168 26.947 43.116 26.947 64.674 0 26.947-10.779 48.505-26.947 64.674l-404.211 409.6c0 0-5.389 5.389-5.389 5.389-26.947 26.947-75.453 59.284-123.958 59.284-86.232 0-242.526 0-269.474 0l-10.779-5.389zM291.032 528.842c-75.453 0-134.737 59.284-134.737 134.737s59.284 134.737 134.737 134.737 134.737-59.284 134.737-134.737-59.284-134.737-134.737-134.737zM291.032 744.421c-43.116 0-80.842-37.726-80.842-80.842s37.726-80.842 80.842-80.842 80.842 37.726 80.842 80.842-37.726 80.842-80.842 80.842z" />
<glyph unicode="&#xe906;" glyph-name="tag1" d="M984.178 459.378l-420.978 420.978c-5.689 5.689-5.689 5.689-11.378 11.378-39.822 28.444-91.022 68.267-153.6 68.267-96.711 0-284.444 0-284.444 0h-5.689c0 0-85.333 0-108.089-113.778v-295.822c0 0-5.689-73.956 73.956-147.911 0 0 0 0 0-5.689l420.978-420.978c51.2-51.2 130.844-51.2 182.044 0l307.2 301.511c45.511 51.2 45.511 130.844 0 182.044zM278.756 561.778c-62.578 0-113.778 51.2-113.778 113.778s51.2 113.778 113.778 113.778 113.778-51.2 113.778-113.778-51.2-113.778-113.778-113.778z" />
<glyph unicode="&#xe907;" glyph-name="template" d="M0 960v-455.111h455.111v455.111h-455.111zM398.222 903.111v-341.333h-341.333v341.333h341.333zM0 391.111v-455.111h455.111v455.111h-455.111zM398.222 334.222v-341.333h-341.333v341.333h341.333zM967.111 960h-398.222v-1024h455.111v1024h-56.889zM625.778-7.111v910.222h341.333v-910.222h-341.333z" />
<glyph unicode="&#xe908;" glyph-name="time" d="M512 960c-281.6 0-512-230.4-512-512s230.4-512 512-512 512 230.4 512 512-230.4 512-512 512zM512-12.8c-256 0-460.8 204.8-460.8 460.8s204.8 460.8 460.8 460.8 460.8-204.8 460.8-460.8-204.8-460.8-460.8-460.8zM486.4 780.8h-51.2v-358.4h358.4v51.2h-307.2z" />
<glyph unicode="&#xe909;" glyph-name="tree" d="M829.44 729.6l-97.28 153.6h-568.32c-87.040 0-158.72-66.56-158.72-153.6h824.32zM5.12 627.2v-455.68c0-87.040 71.68-158.72 158.72-158.72h701.44c87.040 0 158.72 71.68 158.72 158.72v455.68h-1018.88z" />
<glyph unicode="&#xe90a;" glyph-name="txt-t" d="M39.385 644.923v315.077h945.231v-315.077h-78.769v157.538h-315.077v-787.692h157.538v-78.769h-472.615v78.769h157.538v787.692h-315.077v-157.538z" />
<glyph unicode="&#xe90b;" glyph-name="up" d="M651.264-64h-294.912v473.088h-266.24l413.696 550.912 413.696-550.912h-266.24v-473.088zM415.744-4.608h178.176v473.088h204.8l-294.912 393.216-294.912-393.216h206.848v-473.088z" />
<glyph unicode="&#xe90c;" glyph-name="update" d="M449.208 114.717c-135.245 24.151-241.509 130.415-270.491 265.66 0 4.83-4.83 14.491-4.83 19.321h82.113l-130.415 193.208-130.415-193.208h82.113c0-19.321 4.83-38.642 9.66-67.623 43.472-164.226 188.377-294.642 357.434-318.792 178.717-24.151 342.943 62.792 429.887 202.868l-86.943 43.472c-67.623-106.264-193.208-169.057-338.113-144.906zM941.887 486.642c0 24.151-4.83 48.302-9.66 72.453-43.472 164.226-188.377 294.642-357.434 313.962-183.547 28.981-342.943-57.962-429.887-193.208l86.943-43.472c72.453 106.264 198.038 169.057 342.943 144.906 135.245-24.151 246.34-130.415 270.491-265.66 0-9.66 4.83-19.321 9.66-28.981h-82.113l130.415-193.208 130.415 193.208h-91.774z" />
<glyph unicode="&#xe90d;" glyph-name="upload" d="M874.146-64h-724.293c-49.951 0-89.912 39.961-89.912 89.912v844.176c0 49.951 39.961 89.912 89.912 89.912h489.522l324.683-314.693v-619.395c0-49.951-39.961-89.912-89.912-89.912zM149.854 910.049c-19.98 0-39.961-19.98-39.961-39.961v-844.176c0-19.98 14.985-39.961 39.961-39.961h724.293c19.98 0 39.961 14.985 39.961 39.961v599.415l-294.712 289.717h-469.541zM599.415 115.824h-169.834v244.761h-144.859l234.771 309.698 234.771-309.698h-154.849v-244.761zM474.537 165.776h74.927v244.761h94.907l-134.868 174.829-134.868-174.829h94.907v-244.761z" />
<glyph unicode="&#xe90e;" glyph-name="upload1" d="M630.784 960h-489.472c-43.008 0-77.824-34.816-77.824-77.824v-868.352c0-43.008 34.816-77.824 77.824-77.824h739.328c43.008 0 77.824 34.816 77.824 77.824v634.88l-327.68 311.296zM927.744 13.824c0-26.624-20.48-47.104-47.104-47.104h-739.328c-26.624 0-47.104 20.48-47.104 47.104v868.352c0 26.624 20.48 47.104 47.104 47.104h477.184l309.248-292.864v-622.592zM325.632 448h124.928v-247.808h122.88v247.808h124.928l-186.368 247.808z" />
<glyph unicode="&#xe90f;" glyph-name="upload2" d="M646.4 960h-505.6c-35.2 0-67.2-32-67.2-67.2v-889.6c0-38.4 28.8-67.2 67.2-67.2h761.6c38.4 0 67.2 28.8 67.2 67.2v636.8l-323.2 320zM585.6 384v-256h-128v256h-128l192 256 192-256h-128z" />
<glyph unicode="&#xe910;" glyph-name="white-clock" d="M908.876 469.207c0 218.13-175.716 393.846-393.846 393.846s-393.846-175.716-393.846-393.846c0-103.006 42.414-199.953 109.065-272.663l-145.42-139.361 42.414-42.414 145.42 145.42c66.651-54.533 151.479-84.828 242.367-84.828s175.716 30.296 242.367 78.769l145.42-139.361 42.414 42.414-145.42 139.361c66.651 66.651 109.065 163.598 109.065 272.663zM515.030 135.953c-181.775 0-333.254 151.479-333.254 333.254s151.479 333.254 333.254 333.254 333.254-151.479 333.254-333.254c0-187.834-145.42-333.254-333.254-333.254zM222.944 839.371l-175.662-175.662-42.844 42.844 175.662 175.662 42.844-42.844zM1029.654 705.715l-42.844-42.844-175.662 175.662 42.844 42.844 175.662-175.662zM545.325 663.101h-60.592v-242.367h242.367v60.592h-181.775z" />
<glyph unicode="&#xe911;" glyph-name="activity" d="M927.536 718.841l-382.145 226.319c-44.522 25.971-100.174 11.13-126.145-33.391l-356.174-608.464c-25.971-44.522-11.13-100.174 33.391-126.145l385.855-226.319c44.522-25.971 100.174-11.13 126.145 33.391l356.174 608.464c22.261 44.522 7.42 100.174-37.101 126.145zM649.275 132.638l-482.319 281.971 226.319 385.855 482.319-281.971-226.319-385.855zM526.841 911.768l385.855-226.319c25.971-14.841 37.101-48.232 18.551-74.203l-37.101-63.072-482.319 281.971 37.101 63.072c14.841 25.971 51.942 33.391 77.913 18.551zM497.159-15.768l-382.145 222.609c-25.971 14.841-37.101 48.232-18.551 74.203l55.652 96.464 482.319-281.971-55.652-96.464c-18.551-22.261-51.942-29.681-81.623-14.841zM624.951 789.411l96.111-56.142-18.714-32.037-96.111 56.142 18.714 32.037zM366.944 123.706l-64.074 37.428 37.428 64.074 64.074-37.428-37.428-64.074zM711.968 53.347l243.282 416.482 32.037-18.714-243.282-416.482-32.037 18.714zM71.992 426.399l-32.037 18.714 243.282 416.482 32.037-18.714-243.282-416.482z" />
<glyph unicode="&#xe912;" glyph-name="address" d="M537.6 960c0 0-353.28 20.48-378.88-384s358.4-640 358.4-640 358.4 194.56 358.4 599.040c0 399.36-337.92 424.96-337.92 424.96zM512 396.8c-112.64 0-204.8 92.16-204.8 204.8s92.16 204.8 204.8 204.8 204.8-92.16 204.8-204.8-92.16-204.8-204.8-204.8z" />
<glyph unicode="&#xe913;" glyph-name="appointment" d="M678.805 392.398c-32.434-53.285-90.353-85.719-157.538-85.719-76.452 0-141.321 46.335-171.439 111.204-27.801-64.869-94.986-111.204-171.439-111.204-39.385 0-76.452 11.584-106.57 34.751v-231.674c0-57.919 46.335-106.57 106.57-106.57h669.538c57.919 0 106.57 46.335 106.57 106.57v238.624c-32.434-25.484-71.819-41.701-115.837-41.701-69.502 0-127.421 34.751-159.855 85.719zM1003.149 686.624l-44.018 141.321c-9.267 37.068-44.018 62.552-81.086 62.552h-734.407c-39.385-2.317-71.819-27.801-81.086-67.186l-46.335-155.222v-2.317c-9.267-18.534-13.9-41.701-13.9-62.552 0-101.937 83.403-185.339 185.339-185.339 69.502 0 129.738 37.068 162.172 94.986 32.434-55.602 92.67-94.986 162.172-94.986s129.738 37.068 162.172 94.986c32.434-55.602 92.67-94.986 162.172-94.986 101.937 0 185.339 83.403 185.339 185.339 0 30.118-6.95 57.919-18.534 83.403z" />
<glyph unicode="&#xe914;" glyph-name="arrow" d="M0 960v-1024h1024v1024h-1024zM966.656-6.656h-909.312v909.312h909.312v-909.312zM296.96 232.96l219.136 227.328-221.184 202.752-36.864-40.96 176.128-163.84-178.176-186.368zM491.52 271.872l40.96-38.912 219.136 227.328-221.184 202.752-36.864-40.96 176.128-163.84z" />
<glyph unicode="&#xe915;" glyph-name="arrow-down" d="M27.429 521.143l411.429-411.429c36.571-36.571 100.571-36.571 146.286 0l411.429 411.429c36.571 36.571 36.571 100.571 0 146.286-36.571 36.571-100.571 36.571-146.286 0l-338.286-338.286-338.286 338.286c-36.571 36.571-100.571 36.571-146.286 0-36.571-45.714-36.571-109.714 0-146.286v0 0z" />
<glyph unicode="&#xe916;" glyph-name="arrow-line" d="M979.671 428.052l44.329 44.329-44.329 44.329h-4.433l-314.736 310.303-79.792-75.359 239.377-234.944h-815.654v-88.658h815.654l-239.377-234.944 79.792-75.359 314.736 310.303h4.433z" />
<glyph unicode="&#xe917;" glyph-name="award" d="M845.505 762.716v197.284h-657.615v-197.284h-187.89v-23.486c0-14.092 0-291.229 197.284-319.413 28.183-140.917 150.312-244.257 295.927-258.349v-164.404h-187.89v-46.972h422.752v46.972h-187.89v164.404c150.312 9.394 267.743 117.431 300.624 258.349 178.495 37.578 183.193 305.321 183.193 319.413v23.486h-178.495zM46.972 715.743h140.917v-230.165c0-4.697 0-14.092 0-18.789-112.734 28.183-136.22 187.89-140.917 248.954zM798.532 485.578c0-155.009-126.826-281.835-281.835-281.835s-281.835 126.826-281.835 281.835v427.45h563.67v-427.45zM845.505 471.486c0 4.697 0 9.394 0 14.092v230.165h126.826c0-56.367-23.486-206.679-126.826-244.257z" />
<glyph unicode="&#xe918;" glyph-name="car" d="M917.015 542.249h-10.189c-50.945 249.632-112.080 280.199-132.458 280.199-10.189 0-295.483 50.945-519.642 0-45.851-10.189-96.796-152.836-137.552-280.199h-10.189c-56.040 0-106.985-45.851-106.985-101.891v-198.687c0-40.756 20.378-71.323 50.945-91.701 0-10.189 0-15.284 0-20.378v-40.756c0-30.567 25.473-56.040 56.040-56.040h86.607c30.567 0 56.040 25.473 56.040 56.040v45.851h529.831v-45.851c0-30.567 25.473-56.040 56.040-56.040h81.512c30.567 0 56.040 25.473 56.040 56.040v40.756c0 5.095 0 10.189-5.095 20.378 30.567 20.378 56.040 50.945 56.040 91.701v198.687c0 56.040-50.945 101.891-106.985 101.891zM886.448 486.209c35.662 0 61.134-25.473 61.134-61.134s-25.473-61.134-61.134-61.134-61.134 25.473-61.134 61.134c0 35.662 25.473 61.134 61.134 61.134zM270.010 776.597c198.687 45.851 458.507 5.095 494.169 0 5.095-5.095 45.851-35.662 91.701-229.254h-682.667c35.662 106.985 76.418 213.97 96.796 229.254zM137.552 486.209c35.662 0 61.134-25.473 61.134-61.134s-25.473-61.134-61.134-61.134-61.134 25.473-61.134 61.134c0 35.662 25.473 61.134 61.134 61.134zM198.687 129.592v-40.756c0-5.095 0-5.095-5.095-5.095h-86.607c-5.095 0-5.095 0-5.095 5.095v40.756c0 5.095 0 5.095 5.095 5.095v0l91.701-5.095c-5.095 5.095 0 0 0 0zM922.109 88.836c0-5.095-5.095-5.095 0 0l-91.701-5.095c-5.095 0-5.095 0-5.095 5.095v40.756c0 5.095 0 5.095 5.095 5.095h86.607c5.095 0 5.095 0 5.095-5.095v-40.756zM917.015 185.632v0h-810.030c-30.567 0-56.040 25.473-56.040 56.040v112.080c20.378-25.473 50.945-40.756 81.512-40.756 61.134 0 112.080 50.945 112.080 112.080 0 25.473-10.189 50.945-25.473 66.229h575.682c-15.284-20.378-25.473-40.756-25.473-66.229 0-61.134 50.945-112.080 112.080-112.080 35.662 0 66.229 15.284 86.607 40.756v-117.174c5.095-25.473-20.378-50.945-50.945-50.945zM310.766 384.318h407.562v-50.945h-407.562v50.945z" />
<glyph unicode="&#xe919;" glyph-name="car1" d="M887.845 523.169h-178.704l-99.28 113.463c-22.693 25.529-56.731 42.548-90.77 42.548h-312.022c-31.202 0-62.404-31.202-62.404-62.404v-93.607h-19.856c-65.241 0-124.809-68.078-124.809-133.319 0-59.568 45.385-113.463 102.116-124.809 19.856-45.385 62.404-73.751 113.463-73.751s93.607 31.202 113.463 73.751h343.224c19.856-42.548 62.404-73.751 113.463-73.751s93.607 31.202 113.463 73.751v0c65.241 0 124.809 68.078 124.809 136.155-2.837 62.404-70.914 121.972-136.155 121.972v0zM215.579 239.512c-39.712 0-70.914 34.039-70.914 73.751s25.529 73.751 70.914 73.751v0c39.712 0 70.914-34.039 70.914-73.751 2.837-39.712-28.366-73.751-70.914-73.751v0zM544.62 398.36h-59.568c-11.346 0-19.856 8.51-19.856 19.856s8.51 19.856 19.856 19.856h59.568c11.346 0 19.856-8.51 19.856-19.856s-8.51-19.856-19.856-19.856v0zM195.723 523.169v93.607c0 8.51 11.346 11.346 19.856 11.346h309.186c22.693 0 25.529-2.837 42.548-19.856l73.751-82.26-445.341-2.837zM785.729 239.512c-39.712 0-70.914 34.039-70.914 73.751s25.529 73.751 70.914 73.751v0c39.712 0 70.914-34.039 70.914-73.751s-31.202-73.751-70.914-73.751v0z" />
<glyph unicode="&#xe91a;" glyph-name="caret-top" d="M512 955.769c-279.273 0-507.769-228.496-507.769-507.769s228.496-507.769 507.769-507.769 507.769 228.496 507.769 507.769-228.496 507.769-507.769 507.769zM702.413 481.851l-160.793-165.025c0 0-29.62-29.62-59.24 0-25.388 25.388-165.025 165.025-165.025 165.025s-21.157 42.314 29.62 50.777h325.818c4.231-4.231 55.008-4.231 29.62-50.777z" />
<glyph unicode="&#xe91b;" glyph-name="catalog" d="M0 852.508h113.149v-113.149h-113.149v113.149zM0 513.061h113.149v-113.149h-113.149v113.149zM0 173.613h113.149v-113.149h-113.149v113.149zM226.298 852.508h792.044v-113.149h-792.044v113.149zM226.298 513.061h792.044v-113.149h-792.044v113.149zM226.298 173.613h792.044v-113.149h-792.044v113.149z" />
<glyph unicode="&#xe91c;" glyph-name="check" d="M390.982 89.6l-390.982 390.982 79.127 79.127 311.855-311.855 553.891 544.582 79.127-83.782z" />
<glyph unicode="&#xe91d;" glyph-name="check-line" d="M512 960c-284.444 0-512-227.556-512-512s227.556-512 512-512 512 227.556 512 512-227.556 512-512 512zM512-7.111c-250.311 0-455.111 204.8-455.111 455.111s204.8 455.111 455.111 455.111 455.111-204.8 455.111-455.111-204.8-455.111-455.111-455.111zM807.822 630.044l-335.644-341.333-221.867 216.178-39.822-39.822 261.689-256 375.467 381.156z" />
<glyph unicode="&#xe91e;" glyph-name="check-s" d="M376.163 144.98l-376.163 376.163 48.762 48.762 327.401-327.401 599.075 606.041 48.762-48.762z" />
<glyph unicode="&#xe91f;" glyph-name="check-true" d="M896 960h-768c-70.4 0-128-57.6-128-128v-768c0-70.4 57.6-128 128-128h768c70.4 0 128 57.6 128 128v768c0 70.4-57.6 128-128 128zM448 256l-275.2 275.2 44.8 44.8 236.8-236.8 358.4 300.8 38.4-51.2-403.2-332.8z" />
<glyph unicode="&#xe920;" glyph-name="circle-check" d="M509.694 960c-281.369 0-509.694-228.324-509.694-509.694s228.324-512 509.694-512 512 228.324 512 512-228.324 509.694-512 509.694zM814.126 554.090l-313.658-311.351c-9.225-9.225-20.757-13.838-32.288-13.838s-23.063 4.613-32.288 13.838l-209.874 202.955c-18.45 18.45-18.45 46.126 0 64.577s46.126 18.45 64.577 0l175.279-170.667 281.369 279.063c18.45 18.45 48.432 18.45 64.577 0 18.45-18.45 18.45-48.432 2.306-64.577z" />
<glyph unicode="&#xe921;" glyph-name="circle-check2" d="M512 960c-284.444 0-512-227.556-512-512s227.556-512 512-512 512 227.556 512 512-227.556 512-512 512zM591.644 339.911l-85.333-85.333-284.444 278.756 85.333 85.333 199.111-199.111 210.489 210.489 85.333-85.333-210.489-204.8z" />
<glyph unicode="&#xe922;" glyph-name="circle-money" d="M512 960c-282.122 0-512-229.878-512-512s229.878-512 512-512 512 229.878 512 512-229.878 512-512 512zM564.245 813.714h104.49v-104.49h-104.49c0 0 0 104.49 0 104.49zM355.265 813.714h104.49v-104.49h-104.49v104.49zM773.224 500.245h-208.98v-104.49h208.98v-104.49h-208.98v-208.98h-104.49v208.98h-208.98v104.49h208.98v104.49h-208.98v104.49h522.449v-104.49z" />
<glyph unicode="&#xe923;" glyph-name="circle-plus" d="M512 960c-281.6 0-512-230.4-512-512s230.4-512 512-512 512 230.4 512 512-230.4 512-512 512zM768 396.8h-204.8v-204.8h-102.4v204.8h-204.8v102.4h204.8v204.8h102.4v-204.8h204.8v-102.4z" />
<glyph unicode="&#xe924;" glyph-name="circle-plus-s" d="M512 960c-283.031 0-512-228.969-512-512s228.969-512 512-512 512 232.149 512 515.18-228.969 508.82-512 508.82zM671.006 419.379h-127.205v-127.205h-63.602v127.205h-127.205v63.602h127.205v127.205h63.602v-127.205h127.205v-63.602z" />
<glyph unicode="&#xe925;" glyph-name="classification" d="M230.681 611.165v-56.264h-112.527v112.527h675.165v168.791h-787.692v-168.791h56.264v-618.901h168.791v-56.264h787.692v168.791h-787.692v-56.264h-112.527v168.791h112.527v-56.264h787.692v168.791h-787.692v-56.264h-112.527v168.791h112.527v-56.264h787.692v168.791h-787.692zM61.89 779.956h675.165v-56.264h-675.165v56.264zM286.945 104.791h675.165v-56.264h-675.165v56.264zM286.945 329.846h675.165v-56.264h-675.165v56.264zM962.11 498.637h-675.165v56.264h675.165v-56.264z" />
<glyph unicode="&#xe926;" glyph-name="clip" d="M375.070 37.209c-53.581-53.581-136.93-59.535-196.465-5.953l-59.535 53.581c-53.581 53.581-59.535 136.93-5.953 196.465l208.372 220.279-41.674 41.674-208.372-220.279c-71.442-77.395-71.442-202.419 11.907-279.814l59.535-53.581c35.721-35.721 83.349-53.581 130.977-53.581 53.581 0 107.163 17.86 142.884 59.535l208.372 220.279-41.674 41.674-208.372-220.279zM952.558 846.884l-59.535 53.581c-77.395 77.395-202.419 71.442-279.814-5.953l-220.279-232.186 41.674-41.674 220.279 232.186c53.581 53.581 136.93 59.535 196.465 5.953l59.535-53.581c23.814-23.814 41.674-59.535 41.674-95.256s-11.907-71.442-35.721-101.209l-220.279-232.186 41.674-41.674 220.279 232.186c35.721 41.674 53.581 89.302 53.581 142.884s-23.814 101.209-59.535 136.93zM641.312 620.946l42.097-42.097-298.89-298.89-42.097 42.097 298.89 298.89z" />
<glyph unicode="&#xe927;" glyph-name="clock" d="M258.889 916.081c0 0-83.214 106.33-203.413-13.869s-6.935-224.217-6.935-224.217c73.968 180.298 210.348 238.086 210.348 238.086zM968.524 895.278c-122.51 120.199-203.413 13.869-203.413 13.869s138.691-57.788 210.348-238.086c0 0 113.264 101.707-6.935 224.217zM510.844 909.147c-251.955 0-455.368-205.725-455.368-455.368 0-131.756 55.476-249.643 143.314-332.858l-92.46-94.772c-16.181-16.181-16.181-43.919 0-57.788l20.804-18.492c16.181-16.181 43.919-16.181 57.788 0l104.018 106.33c64.722-36.984 141.002-57.788 221.905-57.788 87.837 0 171.052 25.427 240.397 69.345 2.312-4.623 4.623-6.935 6.935-11.558l104.018-106.33c16.181-16.181 41.607-16.181 57.788 0l20.804 18.492c16.181 16.181 16.181 41.607 0 57.788l-104.018 106.33c0 0 0 0-2.312 2.312 80.903 83.214 129.445 194.167 129.445 318.989 2.312 249.643-201.102 455.368-453.056 455.368zM508.533 384.433v0c-2.312 0-2.312 0 0 0-23.115 0-41.607 18.492-41.607 41.607v288.939c0 23.115 18.492 41.607 41.607 41.607s41.607-18.492 41.607-41.607v-245.020h247.332c23.115 0 41.607-18.492 41.607-41.607s-18.492-41.607-41.607-41.607h-288.939v-2.312z" />
<glyph unicode="&#xe928;" glyph-name="close" d="M1017.081 911.568l-48.432 48.432-449.73-456.649-470.486 456.649-48.432-48.432 463.568-456.649-463.568-463.568 48.432-48.432 470.486 463.568 442.811-435.892 48.432 48.432-442.811 435.892z" />
<glyph unicode="&#xe929;" glyph-name="close-b" d="M1014.938 833.133l-126.867 117.805-380.602-380.602-389.664 389.664-117.805-117.805 389.664-398.726-389.664-389.664 117.805-117.805 389.664 389.664 380.602-389.664 126.867 126.867-389.664 380.602z" />
<glyph unicode="&#xe92a;" glyph-name="customer" d="M889.6 960h-832v-1024h896v1024c0 0-64 0-64 0zM889.6 0h-768v896h768v-896zM249.6 768h512v-64h-512v64zM249.6 576h512v-64h-512v64zM249.6 384h512v-64h-512v64z" />
<glyph unicode="&#xe92b;" glyph-name="customer-add" d="M814.080 591.36c0 194.56-158.72 353.28-353.28 353.28s-353.28-158.72-353.28-353.28c0-133.12 71.68-245.76 179.2-307.2-97.28-35.84-271.36-133.12-281.6-312.32l51.2-5.12c10.24 189.44 256 271.36 296.96 286.72 35.84-10.24 66.56-15.36 107.52-15.36 194.56 0 353.28 158.72 353.28 353.28zM158.72 591.36c0 163.84 133.12 302.080 302.080 302.080s302.080-133.12 302.080-302.080-133.12-302.080-302.080-302.080-302.080 133.12-302.080 302.080zM1024 176.64h-153.6v153.6h-51.2v-153.6h-153.6v-51.2h153.6v-153.6h51.2v153.6h153.6z" />
<glyph unicode="&#xe92c;" glyph-name="data" d="M61.89 99.165v843.956h-56.264v-900.22h1012.747v56.264zM624.527 155.429h56.264v675.165h-225.055v-675.165h168.791zM512 774.33h112.527v-562.637h-112.527v562.637zM962.11 155.429v450.11h-225.055v-450.11h225.055zM793.319 549.275h112.527v-337.582h-112.527v337.582zM286.945 155.429h56.264v225.055h-225.055v-225.055h168.791zM174.418 324.22h112.527v-112.527h-112.527v112.527z" />
<glyph unicode="&#xe92d;" glyph-name="date" d="M731.429 886.857v73.143h-73.143v-73.143h-292.571v73.143h-73.143v-73.143h-219.429v-950.857h877.714v950.857h-219.429zM877.714 9.143h-731.429v512h731.429v-512zM877.714 594.286h-731.429v219.429h146.286v-73.143h73.143v73.143h292.571v-73.143h73.143v73.143h146.286v-219.429zM219.429 382.171h146.286v-73.143h-146.286v73.143zM438.857 382.171h146.286v-73.143h-146.286v73.143zM658.286 382.171h146.286v-73.143h-146.286v73.143zM658.286 235.886h146.286v-73.143h-146.286v73.143zM438.857 235.886h146.286v-73.143h-146.286v73.143zM219.429 235.886h146.286v-73.143h-146.286v73.143z" />
<glyph unicode="&#xe92e;" glyph-name="delete" d="M684.8 832v128h-320v-128h-320v-64h64v-832h832v832h64v64c0 0-320 0-320 0zM428.8 896h192v-64h-192v64zM876.8 0h-704v768h704c0 0 0-768 0-768zM364.8 640h64v-512h-64v512zM620.8 640h64v-512h-64v512z" />
<glyph unicode="&#xe92f;" glyph-name="detail" d="M921.6 960h-870.4v-1024h921.6v1024c0 0-51.2 0-51.2 0zM921.6-12.8h-819.2v921.6h819.2v-921.6zM204.8 704h614.4v-51.2h-614.4v51.2zM204.8 499.2h614.4v-51.2h-614.4v51.2zM204.8 294.4h614.4v-51.2h-614.4v51.2z" />
<glyph unicode="&#xe930;" glyph-name="discount" d="M550.209 490.030c0 42.030-34.388 76.418-76.418 76.418s-76.418-34.388-76.418-76.418 34.388-76.418 76.418-76.418 76.418 34.388 76.418 76.418zM435.582 490.030c0 22.925 15.284 38.209 38.209 38.209s38.209-15.284 38.209-38.209-15.284-38.209-38.209-38.209-38.209 15.284-38.209 38.209zM706.866 425.075c-42.030 0-76.418-34.388-76.418-76.418s34.388-76.418 76.418-76.418 76.418 34.388 76.418 76.418-34.388 76.418-76.418 76.418zM706.866 310.448c-22.925 0-38.209 15.284-38.209 38.209s15.284 38.209 38.209 38.209 38.209-15.284 38.209-38.209c0-19.104-19.104-38.209-38.209-38.209zM703.045 608.478c-7.642 3.821-19.104 3.821-26.746-7.642l-202.507-328.597c-3.821-7.642-3.821-19.104 7.642-26.746 3.821-3.821 7.642-3.821 11.463-3.821 7.642 0 11.463 3.821 15.284 7.642l202.507 332.418c3.821 7.642 0 19.104-7.642 26.746zM313.313 444.179h-118.448c-11.463 0-19.104-7.642-19.104-19.104s7.642-19.104 19.104-19.104h118.448c11.463 0 19.104 7.642 19.104 19.104s-7.642 19.104-19.104 19.104zM894.090 619.94v34.388c0 38.209-30.567 72.597-72.597 72.597h-626.627c-38.209-3.821-68.776-34.388-68.776-72.597v-38.209c-72.597-26.746-122.269-99.343-122.269-175.761 0-80.239 49.672-149.015 122.269-175.761v-68.776c0-38.209 30.567-72.597 72.597-72.597h626.627c38.209 0 72.597 30.567 72.597 72.597v64.955c76.418 26.746 129.91 99.343 129.91 179.582s-57.313 152.836-133.731 179.582zM867.343 291.343l-15.284-3.821v-91.701c0-19.104-15.284-34.388-34.388-34.388h-622.806c-19.104 0-34.388 15.284-34.388 34.388v95.522l-15.284 3.821c-64.955 19.104-106.985 76.418-106.985 145.194s42.030 126.090 106.985 145.194l15.284 3.821v64.955c0 19.104 15.284 34.388 34.388 34.388h626.627c19.104 0 34.388-15.284 34.388-34.388v-64.955l15.284-3.821c68.776-19.104 114.627-76.418 114.627-145.194s-49.672-129.91-118.448-149.015z" />
<glyph unicode="&#xe931;" glyph-name="discount2" d="M242.162 517.189c117.622 0 221.405 96.865 221.405 221.405s-96.865 221.405-221.405 221.405-214.486-103.784-214.486-221.405 96.865-221.405 214.486-221.405zM242.162 890.811c83.027 0 152.216-69.189 152.216-152.216s-69.189-152.216-152.216-152.216c-83.027 0-152.216 69.189-152.216 152.216s76.108 152.216 152.216 152.216zM802.595 392.649c-117.622 0-221.405-96.865-221.405-221.405s96.865-221.405 221.405-221.405 221.405 96.865 221.405 221.405-96.865 221.405-221.405 221.405zM802.595 25.946c-83.027 0-152.216 69.189-152.216 152.216s69.189 152.216 152.216 152.216 152.216-69.189 152.216-152.216-69.189-152.216-152.216-152.216zM1003.243 946.162c-13.838 13.838-34.595 13.838-48.432 0l-940.973-927.135c-13.838-13.838-13.838-34.595 0-48.432 6.919-6.919 13.838-6.919 27.676-6.919 6.919 0 20.757 0 27.676 6.919l934.054 927.135c13.838 13.838 13.838 34.595 0 48.432z" />
<glyph unicode="&#xe932;" glyph-name="download" d="M884.137-64h-724.293c-49.951 0-89.912 39.961-89.912 89.912v844.176c0 49.951 39.961 89.912 89.912 89.912h489.522l324.683-314.693v-619.395c0-49.951-39.961-89.912-89.912-89.912zM159.844 910.049c-19.98 0-39.961-19.98-39.961-39.961v-844.176c0-19.98 14.985-39.961 39.961-39.961h724.293c19.98 0 39.961 14.985 39.961 39.961v599.415l-294.712 289.717h-469.541zM524.488 100.839l-234.771 309.698h144.859v244.761h169.834v-244.761h144.859l-224.78-309.698zM389.62 360.585l134.868-174.829 134.868 174.829h-99.902v244.761h-74.927v-244.761h-94.907z" />
<glyph unicode="&#xe933;" glyph-name="download1" d="M905.193 320.707v-226.298h-792.044v226.298h-113.149v-339.448h1018.343v339.448zM792.044 575.293h-169.724v367.735h-226.298v-367.735h-169.724l282.873-367.735z" />
<glyph unicode="&#xe934;" glyph-name="download2" d="M664.646 956.82h-502.46c-38.161 0-66.783-31.801-66.783-66.783v-884.075c0-38.161 28.621-66.783 66.783-66.783h756.87c38.161 0 66.783 28.621 66.783 66.783v636.025l-321.193 314.832zM731.429 384.398l-190.807-254.41-190.807 254.41h127.205v254.41h127.205v-254.41h127.205z" />
<glyph unicode="&#xe935;" glyph-name="download3" d="M630.784 960h-489.472c-43.008 0-77.824-34.816-77.824-77.824v-868.352c0-43.008 34.816-77.824 77.824-77.824h739.328c43.008 0 77.824 34.816 77.824 77.824v634.88l-327.68 311.296zM927.744 13.824c0-26.624-20.48-47.104-47.104-47.104h-739.328c-26.624 0-47.104 20.48-47.104 47.104v868.352c0 26.624 20.48 47.104 47.104 47.104h477.184l309.248-292.864c0 0 0-622.592 0-622.592zM512 200.192l186.368 247.808h-124.928v247.808h-122.88v-247.808h-124.928z" />
<glyph unicode="&#xe936;" glyph-name="drop-down" d="M886.784 957.952h-747.52c-73.728 0-135.168-61.44-135.168-135.168v-747.52c0-73.728 61.44-135.168 135.168-135.168h747.52c73.728 0 135.168 61.44 135.168 135.168v747.52c0 73.728-61.44 135.168-135.168 135.168zM968.704 75.264c0-45.056-36.864-81.92-81.92-81.92h-747.52c-45.056 0-81.92 36.864-81.92 81.92v747.52c0 45.056 36.864 81.92 81.92 81.92h747.52c45.056 0 81.92-36.864 81.92-81.92v-747.52zM524.288 355.84l-249.856 202.752-34.816-43.008 284.672-227.328 284.672 227.328-32.768 43.008z" />
<glyph unicode="&#xe937;" glyph-name="edit" d="M984.866 653.452l-306.548 306.548-169.58-156.535-45.656-45.656-358.726-326.115v-332.637h319.592l560.917 554.395zM163.057 164.28v241.325l345.682 313.070 241.325-241.325 45.656 45.656-241.325 241.325 123.924 110.879 215.236-215.236-502.217-495.694h-228.28zM26.089 1.223h978.344v-65.223h-978.344v65.223z" />
<glyph unicode="&#xe938;" glyph-name="edit1" d="M979.044 610.341c-29.971 0-49.951-19.98-49.951-49.951v-444.566c0-49.951-39.961-84.917-84.917-84.917h-639.376c-49.951 0-84.917 39.961-84.917 84.917v659.356c0 49.951 39.961 84.917 84.917 84.917h469.541c29.971 0 49.951 19.98 49.951 49.951s-19.98 49.951-49.951 49.951h-469.541c-104.898 0-184.82-84.917-184.82-184.82v-654.361c0-104.898 84.917-184.82 184.82-184.82h634.38c104.898 0 184.82 84.917 184.82 184.82v444.566c4.995 24.976-19.98 44.956-44.956 44.956zM344.663 235.707c9.99-9.99 19.98-14.985 34.966-14.985s24.976 4.995 34.966 14.985l574.439 614.4c19.98 19.98 19.98 49.951 0 69.932s-49.951 19.98-69.932 0l-574.439-614.4c-19.98-19.98-19.98-49.951 0-69.932z" />
<glyph unicode="&#xe939;" glyph-name="edit2" d="M281.005 693.284h476.279v-47.628h-476.279v47.628zM281.005 502.772h476.279v-47.628h-476.279v47.628zM281.005 312.26h381.023v-47.628h-381.023v47.628zM114.307 26.493v857.302c0 14.288 9.526 23.814 23.814 23.814h762.047c14.288 0 23.814-9.526 23.814-23.814v-333.395h47.628v333.395c0 38.102-33.34 71.442-71.442 71.442h-762.047c-38.102 0-71.442-33.34-71.442-71.442v-857.302c0-38.102 33.34-71.442 71.442-71.442h523.907v47.628h-523.907c-9.526 0-23.814 14.288-23.814 23.814zM755.57-36.603l254.471 485.007 42.175-22.128-254.471-485.007-42.175 22.128z" />
<glyph unicode="&#xe93a;" glyph-name="edit3" d="M940.066 699.803l-260.197 260.197-562.361-579.148-16.787-268.59 268.59 16.787zM16.787 28.328h1007.213v-83.934h-1007.213v83.934z" />
<glyph unicode="&#xe93b;" glyph-name="excel" d="M989.184 843.264h-421.888v116.736l-532.48-147.456v-724.992l534.528-147.456v116.736h421.888v786.432zM540.672-23.040l-479.232 131.072v681.984l477.184 133.12v-946.176zM962.56 83.456h-395.264v141.312h98.304v28.672h-98.304v83.968h98.304v28.672h-98.304v83.968h98.304v28.672h-98.304v83.968h98.304v28.672h-98.304v83.968h98.304v28.672h-98.304v110.592h395.264v-731.136zM200.704 288.256l86.016 135.168 86.016-135.168 24.576 14.336-94.208 147.456 94.208 147.456-24.576 14.336-86.016-135.168-86.016 135.168-24.576-14.336 94.208-147.456-94.208-147.456zM722.944 701.952h141.312v-28.672h-141.312v28.672zM722.944 589.312h141.312v-28.672h-141.312v28.672zM722.944 476.672h141.312v-28.672h-141.312v28.672zM722.944 366.080h141.312v-28.672h-141.312v28.672zM722.944 253.44h141.312v-28.672h-141.312v28.672z" />
<glyph unicode="&#xe93c;" glyph-name="exit" d="M454.503 932.62h109.519v-547.594h-109.519v547.594zM673.54 927.144v-60.235c169.754-65.711 290.225-229.989 290.225-421.647 0-246.417-202.61-449.027-449.027-449.027s-449.027 202.61-449.027 449.027c0 191.658 114.995 350.46 284.749 421.647v54.759c-202.61-65.711-344.984-251.893-344.984-476.406 0-279.273 224.513-503.786 503.786-503.786s503.786 224.513 503.786 503.786c5.476 224.513-136.898 416.171-339.508 481.882z" />
<glyph unicode="&#xe93d;" glyph-name="extend" d="M1019.147-68.853h-1014.294v291.185l38.825-29.118c29.118-24.265 67.943-33.972 101.915-29.118 82.502 4.853 145.592 77.649 140.739 160.152 0 38.825-19.412 77.649-48.531 101.915s-67.943 38.825-111.621 38.825c-29.118 0-58.237-14.559-82.502-29.118l-38.825-29.118v291.185h354.275c-9.706 19.412-9.706 43.678-9.706 63.090 0 106.768 87.355 194.123 194.123 194.123s194.123-87.355 194.123-194.123c0-19.412-4.853-43.678-9.706-63.090h291.185c0 0 0-766.787 0-766.787zM53.384-20.322h912.379v664.872h-325.156l24.265 38.825c14.559 24.265 24.265 48.531 24.265 77.649 0 77.649-63.090 145.592-145.592 145.592s-145.592-63.090-145.592-145.592c0-24.265 9.706-53.384 24.265-77.649l24.265-38.825h-388.246v-150.445c19.412 9.706 43.678 14.559 67.943 19.412 53.384 4.853 106.768-14.559 145.592-48.531 38.825-38.825 63.090-87.355 63.090-140.739 4.853-53.384-14.559-106.768-48.531-145.592s-82.502-63.090-135.886-67.943c-33.972 0-67.943 4.853-97.062 19.412v-150.445z" />
<glyph unicode="&#xe93e;" glyph-name="eye" d="M512 736c-288 0-512-140.8-512-313.6s224-313.6 512-313.6 512 140.8 512 313.6-224 313.6-512 313.6zM512 166.4c-243.2 0-448 115.2-448 249.6s204.8 249.6 448 249.6 448-115.2 448-249.6-204.8-249.6-448-249.6zM512 608c-102.4 0-192-83.2-192-192s83.2-192 192-192 192 83.2 192 192c0 108.8-89.6 192-192 192zM512 294.4c-70.4 0-128 57.6-128 128s57.6 128 128 128 128-57.6 128-128-57.6-128-128-128z" />
<glyph unicode="&#xe93f;" glyph-name="failure" d="M170.667 960h-56.889v-967.111h-113.778v-56.889h284.444v56.889h-113.778zM967.111 789.333h-284.444v170.667h-455.111v-568.889h398.222v-170.667h398.222v568.889h-56.889zM625.778 448h-341.333v455.111h341.333v-455.111zM967.111 277.333h-284.444v455.111h284.444v-455.111z" />
<glyph unicode="&#xe940;" glyph-name="headset" d="M923.113 571.586c-10.089 206.818-181.596 378.325-393.458 378.325h-45.399c-211.862 0-383.369-166.463-393.458-378.325-45.399-20.177-85.754-60.532-85.754-156.374 0-105.931 55.488-141.241 105.931-156.374 40.355-116.020 131.153-211.862 252.217-247.172 5.044-40.355 35.31-70.621 75.665-70.621h100.887c40.355 0 75.665 35.31 75.665 75.665s-35.31 75.665-75.665 75.665h-100.887c-25.222 0-50.443-15.133-60.532-30.266-95.842 30.266-171.507 100.887-206.818 196.729 20.177 0 40.355 5.044 40.355 5.044v322.837c0 0-30.266 5.044-60.532 0 15.133 176.552 161.419 312.749 343.015 312.749h45.399c181.596 0 327.882-136.197 343.015-312.749-35.31 5.044-60.532 0-60.532 0v-322.837c0 0 196.729-50.443 201.773 156.374-10.089 90.798-55.488 131.153-100.887 151.33z" />
<glyph unicode="&#xe941;" glyph-name="ID" d="M863.756 877.924h-703.511c-85.985 0-156.336-70.351-156.336-156.336v-547.176c0-85.985 70.351-156.336 156.336-156.336h703.511c85.985 0 156.336 70.351 156.336 156.336v547.176c0 85.985-70.351 156.336-156.336 156.336zM554.992 162.687c0 0-66.443 171.969-199.328 171.969s-195.42-168.061-199.328-171.969l-74.26 27.359c3.908 7.817 66.443 164.153 199.328 207.145-50.809 31.267-82.076 85.985-82.076 148.519 0 97.71 78.168 175.878 175.878 175.878s175.878-78.168 175.878-175.878c0-70.351-39.084-128.977-97.71-156.336 117.252-54.718 171.969-191.511 175.878-199.328l-74.26-27.359zM902.84 213.496h-195.42v78.168h195.42v-78.168zM902.84 408.916h-195.42v78.168h195.42v-78.168zM902.84 604.336h-195.42v78.168h195.42v-78.168zM472.916 545.71c0-53.964-43.746-97.71-97.71-97.71s-97.71 43.746-97.71 97.71c0 53.964 43.746 97.71 97.71 97.71s97.71-43.746 97.71-97.71z" />
<glyph unicode="&#xe942;" glyph-name="join" d="M934.47 64.699c0-22.383-16.787-39.169-39.169-39.169h-800.175c-22.383 0-39.169 16.787-39.169 39.169v800.175c0 22.383 16.787 39.169 39.169 39.169h800.175c22.383 0 39.169-16.787 39.169-39.169v-67.148h55.956v67.148c0 50.361-44.765 95.126-95.126 95.126h-800.175c-50.361 0-95.126-44.765-95.126-95.126v-800.175c0-50.361 44.765-95.126 95.126-95.126h800.175c50.361 0 95.126 44.765 95.126 95.126v346.929h-55.956v-346.929zM503.607 288.525l-262.995 262.995-39.169-44.765 302.164-296.568 520.393 464.437-33.574 44.765z" />
<glyph unicode="&#xe943;" glyph-name="key" d="M694.495 914.376c-182.495 0-329.505-147.010-329.505-329.505 0-60.832 20.277-121.663 50.693-172.356l-152.079-152.079-121.663 121.663-141.941-141.941 121.663-121.663-70.97-70.97 106.455-106.455 364.99 364.99c50.693-30.416 106.455-50.693 172.356-50.693 182.495 0 329.505 147.010 329.505 329.505s-147.010 329.505-329.505 329.505zM694.495 407.446c-96.317 0-177.426 81.109-177.426 177.426s81.109 177.426 177.426 177.426 177.426-81.109 177.426-177.426c0-96.317-81.109-177.426-177.426-177.426z" />
<glyph unicode="&#xe944;" glyph-name="light" d="M123.373-64l215.904 530.506h-302.265l592.193 487.325-18.506-320.771 407.133-6.169-894.458-690.892zM209.735 528.193h215.904l-160.386-407.133 579.855 450.313-296.096 6.169 12.337 240.578-351.614-289.928z" />
<glyph unicode="&#xe945;" glyph-name="link" d="M1019.387 710.919c-4.613 69.189-73.802 92.252-110.703 92.252h-189.117c-4.613 59.964-55.351 101.477-115.315 101.477h-189.117c-64.577 0-115.315-50.739-115.315-115.315v-23.063c0-64.577 50.739-115.315 115.315-115.315h189.117c59.964 0 106.090 46.126 115.315 106.090h189.117c0 0 64.577-4.613 64.577-50.739 4.613-59.964 0-161.441 0-179.892-4.613-9.225-18.45-46.126-59.964-46.126h-193.73c-9.225 55.351-55.351 101.477-115.315 101.477h-189.117c-59.964 0-106.090-46.126-115.315-106.090h-193.73c-36.901 0-106.090-23.063-106.090-92.252-4.613-69.189 0-179.892 0-184.505v-4.613c9.225-27.676 41.514-83.027 106.090-83.027h193.73c4.613-59.964 55.351-101.477 115.315-101.477h189.117c64.577 0 115.315 50.739 115.315 115.315v23.063c0 64.577-50.739 115.315-115.315 115.315h-189.117c-59.964 0-106.090-46.126-115.315-106.090h-193.73c-41.514 0-55.351 36.901-59.964 46.126 0 18.45-4.613 119.928 0 179.892 0 46.126 59.964 50.739 64.577 50.739h189.117c4.613-59.964 55.351-106.090 115.315-106.090h189.117c59.964 0 110.703 46.126 115.315 106.090h193.73c64.577 0 96.865 55.351 106.090 83.027v4.613c0 9.225 0 124.541 0 189.117zM673.441 770.883c0-36.901-32.288-69.189-69.189-69.189h-189.117c-36.901 0-69.189 32.288-69.189 69.189v23.063c0 36.901 32.288 69.189 69.189 69.189h189.117c36.901 0 69.189-32.288 69.189-69.189v-23.063zM345.946 143.568c0 36.901 32.288 69.189 69.189 69.189h189.117c36.901 0 69.189-32.288 69.189-69.189v-23.063c0-36.901-32.288-69.189-69.189-69.189h-189.117c-36.901 0-69.189 32.288-69.189 69.189v23.063zM673.441 443.387c0-36.901-32.288-69.189-69.189-69.189h-189.117c-36.901 0-69.189 32.288-69.189 69.189v23.063c0 36.901 32.288 69.189 69.189 69.189h189.117c36.901 0 69.189-32.288 69.189-69.189v-23.063z" />
<glyph unicode="&#xe946;" glyph-name="list" d="M967.503-56.938l-459.034 303.669-459.034-303.669v1016.938h918.069v-1016.938zM508.469 331.476l388.414-261.297v819.2h-776.828v-819.2l388.414 261.297z" />
<glyph unicode="&#xe947;" glyph-name="loading" d="M994.175 219.34v0h-89.476c19.883 29.825 34.796 59.65 44.738 94.447 14.913 49.709 24.854 99.417 24.854 154.097 0 64.621-9.942 124.272-34.796 183.922-24.854 54.68-59.65 104.388-99.417 149.126-44.738 44.738-94.447 74.563-149.126 99.417-59.65 24.854-119.301 34.796-183.922 34.796-54.68 0-104.388-9.942-154.097-24.854-14.913-4.971-19.883-19.883-14.913-34.796s19.883-19.883 34.796-14.913c44.738 14.913 89.476 24.854 139.184 24.854 109.359 0 213.748-44.738 293.282-119.301 79.534-79.534 119.301-183.922 119.301-293.282 0-44.738-9.942-94.447-24.854-134.214-9.942-29.825-24.854-54.68-39.767-79.534l-29.825 79.534c-4.971 14.913-19.883 19.883-34.796 14.913s-19.883-19.883-14.913-34.796l44.738-129.243c0-4.971 4.971-9.942 4.971-9.942 4.971-4.971 9.942-9.942 19.883-9.942v0h144.155c14.913 0 29.825 9.942 29.825 29.825-4.971 9.942-14.913 19.883-29.825 19.883v0zM685.981 95.068c-54.68-24.854-114.33-39.767-178.951-39.767-109.359 0-213.748 44.738-293.282 119.301-79.534 79.534-119.301 183.922-119.301 293.282 0 89.476 29.825 178.951 84.505 248.544l34.796-99.417c4.971-9.942 14.913-19.883 24.854-19.883 4.971 0 4.971 0 9.942 0 14.913 4.971 19.883 19.883 14.913 34.796l-49.709 139.184c-4.971 9.942-14.913 19.883-29.825 19.883h-154.097c-14.913 0-29.825-9.942-29.825-29.825 0-14.913 9.942-29.825 29.825-29.825v0h89.476c-54.68-79.534-84.505-169.010-84.505-268.427 0-64.621 9.942-124.272 34.796-183.922 24.854-54.68 59.65-104.388 99.417-149.126 44.738-44.738 94.447-74.563 149.126-99.417 59.65-24.854 119.301-34.796 183.922-34.796 69.592 0 139.184 14.913 203.806 44.738 14.913 4.971 19.883 24.854 14.913 34.796-4.971 19.883-19.883 24.854-34.796 19.883v0z" />
<glyph unicode="&#xe948;" glyph-name="location" d="M781.346 824.114c-67.943 87.355-174.711 131.033-296.038 131.033s-228.095-53.384-300.891-145.592c-82.502-106.768-111.621-252.36-77.649-388.246 63.090-262.066 354.275-461.043 363.981-470.749l14.559-9.706 14.559 4.853c14.559 4.853 310.597 169.858 368.834 470.749 24.265 165.005-4.853 310.597-87.355 407.659zM820.171 431.014c-43.678-247.507-276.626-397.953-330.009-431.924-53.384 38.825-281.479 218.389-334.863 436.777-33.972 121.327-4.853 252.36 67.943 344.569 63.090 82.502 155.299 131.033 262.066 131.033s198.976-38.825 262.066-111.621c72.796-92.209 97.062-223.242 72.796-368.834zM495.014 770.73c-121.327 0-218.389-97.062-218.389-218.389s97.062-218.389 218.389-218.389 218.389 97.062 218.389 218.389-101.915 218.389-218.389 218.389zM495.014 382.483c-92.209 0-169.858 77.649-169.858 169.858s77.649 169.858 169.858 169.858 169.858-77.649 169.858-169.858-77.649-169.858-169.858-169.858z" />
<glyph unicode="&#xe949;" glyph-name="mark" d="M521.309 587.636c-51.2 0-93.091-41.891-93.091-93.091v-465.455c0-51.2 41.891-93.091 93.091-93.091s93.091 41.891 93.091 93.091v465.455c0 51.2-41.891 93.091-93.091 93.091zM614.4 866.909c0-51.413-41.678-93.091-93.091-93.091s-93.091 41.678-93.091 93.091c0 51.413 41.678 93.091 93.091 93.091s93.091-41.678 93.091-93.091z" />
<glyph unicode="&#xe94a;" glyph-name="material" d="M838.4 960h-646.4c-64 0-121.6-51.2-121.6-121.6v-780.8c0-64 51.2-121.6 121.6-121.6h646.4c64 0 121.6 51.2 121.6 121.6v780.8c0 70.4-51.2 121.6-121.6 121.6zM896 64c0-32-25.6-57.6-57.6-57.6h-646.4c-32 0-57.6 25.6-57.6 57.6v774.4c0 32 25.6 57.6 57.6 57.6h646.4c32 0 57.6-25.6 57.6-57.6v-774.4zM320 518.4c70.4 0 121.6 57.6 121.6 121.6s-57.6 121.6-121.6 121.6-121.6-57.6-121.6-121.6 51.2-121.6 121.6-121.6zM320 704c32 0 57.6-25.6 57.6-57.6s-25.6-57.6-57.6-57.6-57.6 25.6-57.6 57.6 25.6 57.6 57.6 57.6zM576 710.4h256v-64h-256v64zM192 390.4h640v-64h-640v64zM192 198.4h640v-64h-640v64z" />
<glyph unicode="&#xe94b;" glyph-name="message" d="M836.968 917.918h-649.936c-102.868 0-187.032-84.164-187.032-187.032v-561.096c0-102.868 84.164-187.032 187.032-187.032h649.936c102.868 0 187.032 84.164 187.032 187.032v561.096c0 102.868-79.489 187.032-187.032 187.032zM187.032 824.402h649.936c46.758 0 84.164-32.731 93.516-74.813l-416.146-289.9-416.146 294.575c9.352 42.082 42.082 70.137 88.84 70.137zM836.968 76.274h-649.936c-51.434 0-93.516 42.082-93.516 93.516v472.256l420.822-294.575 416.146 289.9v-467.58c0-51.434-42.082-93.516-93.516-93.516z" />
<glyph unicode="&#xe94c;" glyph-name="message-s" d="M833.164 843.636h-642.327c-107.055 0-190.836-83.782-190.836-190.836v-404.945c0-107.055 83.782-190.836 190.836-190.836h642.327c107.055 0 190.836 83.782 190.836 190.836v404.945c0 102.4-88.436 190.836-190.836 190.836zM833.164 797.091c23.273 0 41.891-4.655 65.164-13.964l-386.327-386.327-390.982 381.673c23.273 13.964 46.545 18.618 69.818 18.618h642.327zM977.455 247.855c0-79.127-65.164-144.291-144.291-144.291h-642.327c-79.127 0-144.291 65.164-144.291 144.291v404.945c0 37.236 13.964 69.818 37.236 93.091l428.218-414.255 418.909 423.564c27.927-27.927 41.891-60.509 41.891-102.4v-404.945z" />
<glyph unicode="&#xe94d;" glyph-name="minus" d="M0 533.333h1024v-170.667h-1024v170.667z" />
<glyph unicode="&#xe94e;" glyph-name="money" d="M418.909 862.255c0-52.698-42.72-95.418-95.418-95.418s-95.418 42.72-95.418 95.418c0 52.698 42.72 95.418 95.418 95.418s95.418-42.72 95.418-95.418zM765.673 862.255c0-52.698-42.72-95.418-95.418-95.418s-95.418 42.72-95.418 95.418c0 52.698 42.72 95.418 95.418 95.418s95.418-42.72 95.418-95.418zM809.891 562.036c39.564 0 69.818 30.255 69.818 69.818v0c0 39.564-30.255 69.818-69.818 69.818h-653.964c-39.564 0-69.818-30.255-69.818-69.818v0c0-39.564 30.255-69.818 69.818-69.818h262.982v-118.691h-262.982c-39.564 0-69.818-30.255-69.818-69.818s30.255-69.818 69.818-69.818h262.982v-295.564c0-39.564 32.582-72.145 72.145-72.145s72.145 32.582 72.145 72.145v295.564h246.691c39.564 0 69.818 30.255 69.818 69.818s-30.255 69.818-69.818 69.818h-246.691v118.691h246.691z" />
<glyph unicode="&#xe94f;" glyph-name="money1" d="M993.433 557.532l20.378 5.095v132.458c0 122.269-101.891 224.159-224.159 224.159h-565.493c-122.269 0-224.159-101.891-224.159-224.159v-132.458l20.378-5.095c45.851-10.189 76.418-50.945 76.418-96.796s-30.567-86.607-76.418-96.796l-20.378-5.095v-132.458c0-122.269 101.891-224.159 224.159-224.159h570.587c122.269 0 224.159 101.891 224.159 224.159v132.458l-20.378 5.095c-45.851 10.189-76.418 50.945-76.418 96.796s30.567 86.607 71.323 96.796zM962.866 323.184v-96.796c0-96.796-76.418-173.214-173.214-173.214h-565.493c-96.796 0-173.214 76.418-173.214 173.214v96.796c56.040 20.378 96.796 76.418 96.796 142.647 0 61.134-40.756 117.174-96.796 142.647v96.796c0 96.796 76.418 173.214 173.214 173.214h570.587c96.796 0 173.214-76.418 173.214-173.214v-96.796c-56.040-20.378-96.796-76.418-96.796-137.552-5.095-71.323 35.662-127.363 91.701-147.741zM621.532 730.746l-112.080-234.348-106.985 234.348h-81.512l132.458-244.537h-106.985v-56.040h127.363v-76.418h-127.363v-56.040h127.363v-106.985h66.229v106.985h127.363v56.040h-122.269v76.418h117.174v56.040h-101.891l132.458 244.537z" />
<glyph unicode="&#xe950;" glyph-name="money-line" d="M512 960c-284.444 0-512-227.556-512-512s227.556-512 512-512 512 227.556 512 512-227.556 512-512 512zM512-7.111c-250.311 0-455.111 204.8-455.111 455.111s204.8 455.111 455.111 455.111 455.111-204.8 455.111-455.111-204.8-455.111-455.111-455.111zM540.444 476.444h170.667v56.889h-153.6l153.6 136.533-34.133 28.444-142.222-119.467h-28.444l-142.222 119.467-34.133-28.444 159.289-136.533h-176.356v-56.889h170.667v-113.778h-227.556v-56.889h227.556v-227.556h56.889v227.556h227.556v56.889h-227.556z" />
<glyph unicode="&#xe951;" glyph-name="money-r" d="M978.763 737.928h41.124v102.811h-834.827c-102.811 0-185.060-82.249-185.060-185.060v-464.707c0-102.811 82.249-185.060 185.060-185.060h834.827v90.474h-41.124c-32.9 0-57.574 28.787-57.574 61.687s24.675 57.574 57.574 61.687h41.124v123.373h-41.124c-32.9 0-57.574 28.787-57.574 61.687s24.675 57.574 57.574 61.687h41.124v148.048h-41.124c-32.9 0-57.574 28.787-57.574 61.687s24.675 57.574 57.574 61.687zM929.414 544.643c-53.462-20.562-90.474-74.024-90.474-131.598 0-53.462 28.787-98.699 69.912-123.373-41.124-24.675-69.912-69.912-69.912-123.373 0-24.675 8.225-49.349 20.562-69.912h-674.442c-57.574 0-102.811 45.237-102.811 102.811v460.594c0 57.574 45.237 102.811 102.811 102.811h682.667c-16.45-24.675-28.787-53.462-28.787-82.249 0-65.799 37.012-115.149 90.474-135.711zM407.133 610.442c0-34.069-27.618-61.687-61.687-61.687s-61.687 27.618-61.687 61.687c0 34.069 27.618 61.687 61.687 61.687s61.687-27.618 61.687-61.687zM695.004 610.442c0-34.069-27.618-61.687-61.687-61.687s-61.687 27.618-61.687 61.687c0 34.069 27.618 61.687 61.687 61.687s61.687-27.618 61.687-61.687zM695.004 425.382c24.675 0 41.124 16.45 41.124 41.124s-16.45 41.124-41.124 41.124h-411.245c-24.675 0-41.124-16.45-41.124-41.124s16.45-41.124 41.124-41.124h164.498v-82.249h-164.498c-24.675 0-41.124-16.45-41.124-41.124s16.45-41.124 41.124-41.124h164.498v-41.124c0-24.675 16.45-41.124 41.124-41.124s41.124 16.45 41.124 41.124v41.124h164.498c24.675 0 41.124 16.45 41.124 41.124s-16.45 41.124-41.124 41.124h-164.498v82.249c0 0 164.498 0 164.498 0z" />
<glyph unicode="&#xe952;" glyph-name="n-door" d="M841.644 917.918h-654.612c-102.868 0-187.032-84.164-187.032-187.032v-561.096c0-102.868 84.164-187.032 187.032-187.032h649.936c102.868 0 187.032 84.164 187.032 187.032v561.096c4.676 107.543-84.164 187.032-182.356 187.032zM280.548 824.402h467.58v-280.548c0-37.406-32.731-70.137-70.137-70.137h-327.306c-37.406 0-70.137 32.731-70.137 70.137 0 0 0 280.548 0 280.548zM935.16 169.79c0-51.434-42.082-93.516-93.516-93.516h-654.612c-51.434 0-93.516 42.082-93.516 93.516v561.096c0 51.434 42.082 93.516 93.516 93.516h46.758v-280.548c0-65.461 51.434-116.895 116.895-116.895h327.306c65.461 0 116.895 51.434 116.895 116.895v280.548h42.082c51.434 0 93.516-42.082 93.516-93.516 0 0 0-561.096 4.676-561.096zM607.854 730.886h46.758v-140.274h-46.758v140.274z" />
<glyph unicode="&#xe953;" glyph-name="n-gift" d="M1009.015 615.337c0 4.995 0 4.995-4.995 9.99v0 0l-124.878 239.766c-9.99 24.976-34.966 39.961-64.937 39.961h-599.415c-29.971 0-54.946-14.985-64.937-39.961l-119.883-229.776c-19.98-29.971-29.971-64.937-29.971-99.902 0-94.907 79.922-174.829 174.829-174.829 39.961 0 79.922 14.985 109.893 39.961 29.971-24.976 69.932-39.961 109.893-39.961s89.912 19.98 119.883 44.956c29.971-24.976 69.932-39.961 109.893-39.961s79.922 14.985 109.893 39.961c29.971-24.976 69.932-39.961 109.893-39.961 94.907 0 174.829 79.922 174.829 174.829 4.995 24.976 0 49.951-9.99 74.927zM849.171 415.532c-49.951 0-89.912 29.971-109.893 69.932-19.98-39.961-64.937-69.932-109.893-69.932s-94.907 24.976-114.888 69.932c-19.98-39.961-64.937-69.932-109.893-69.932s-89.912 29.971-109.893 69.932c-19.98-39.961-64.937-69.932-109.893-69.932-69.932 0-124.878 54.946-124.878 124.878 0 24.976 9.99 49.951 24.976 74.927 0 0 0 0 0 0l119.883 234.771c4.995 9.99 9.99 14.985 19.98 14.985h599.415c9.99 0 14.985-4.995 19.98-14.985l124.878-239.766c0 0 0-4.995 0-4.995 9.99-19.98 14.985-39.961 14.985-59.941-9.99-74.927-64.937-129.873-134.868-129.873zM914.107 90.849c0-54.946-44.956-94.907-94.907-94.907h-609.405c-54.946 0-99.902 44.956-99.902 99.902v244.761h-49.951v-244.761c0-79.922 64.937-149.854 149.854-149.854h609.405c79.922 0 144.859 64.937 144.859 144.859v244.761h-49.951v-244.761z" />
<glyph unicode="&#xe954;" glyph-name="warning" d="M512.728 957.087c-281.127 0-509.815-228.688-509.815-509.815s228.688-509.815 509.815-509.815 509.815 228.688 509.815 509.815-228.688 509.815-509.815 509.815zM540.404 247.716c0-16.023-13.11-27.676-27.676-27.676-16.023 0-27.676 13.11-27.676 27.676v288.41c0 16.023 13.11 27.676 27.676 27.676 16.023 0 27.676-13.11 27.676-27.676v-288.41zM512.728 622.065c-16.023 0-27.676 13.11-27.676 27.676 0 16.023 13.11 27.676 27.676 27.676s27.676-13.11 27.676-27.676c0-14.566-13.11-27.676-27.676-27.676z" />
<glyph unicode="&#xe955;" glyph-name="order" d="M825.806 778.323h-467.957c-82.581 0-148.645-66.065-148.645-148.645v-545.032c0-82.581 66.065-148.645 148.645-148.645h467.957c82.581 0 148.645 66.065 148.645 148.645v545.032c0 82.581-66.065 148.645-148.645 148.645zM919.398 84.645c0-49.548-44.043-93.591-93.591-93.591h-467.957c-49.548 0-93.591 44.043-93.591 93.591v545.032c0 49.548 44.043 93.591 93.591 93.591h467.957c49.548 0 93.591-44.043 93.591-93.591v-545.032zM165.161 899.441c33.032 0 104.602 0 176.172 0 148.645 0 335.828 0 335.828 0s71.57-11.011 77.075-55.054h55.054c0 71.57-77.075 104.602-126.624 110.108-16.516 0-418.409 5.505-523.011 0-99.097-5.505-126.624-82.581-126.624-121.118 0-22.022 0-567.054 0-644.129s66.065-115.613 99.097-121.118l11.011 55.054c-5.505 0-55.054 16.516-55.054 71.57 0 77.075 0 633.118 0 638.624s5.505 60.559 77.075 66.065zM368.86 558.108h440.43v-55.054h-440.43v55.054zM368.86 392.946h440.43v-55.054h-440.43v55.054zM368.86 227.785h440.43v-55.054h-440.43v55.054z" />
<glyph unicode="&#xe956;" glyph-name="park" d="M650.608 733.702h-367.735v-611.006h56.575v214.983h311.16c79.204 0 141.436 62.232 141.436 141.436v113.149c0 79.204-62.232 141.436-141.436 141.436zM735.47 479.116c0-45.26-39.602-84.862-84.862-84.862h-311.16v282.873h311.16c50.917 0 84.862-39.602 84.862-84.862v-113.149zM876.906 960h-735.47c-79.204 0-141.436-62.232-141.436-141.436v-735.47c0-79.204 62.232-141.436 141.436-141.436h735.47c79.204 0 141.436 62.232 141.436 141.436v735.47c0 79.204-62.232 141.436-141.436 141.436zM961.768 83.094c0-45.26-39.602-84.862-84.862-84.862h-735.47c-45.26 0-84.862 33.945-84.862 84.862v735.47c0 45.26 39.602 84.862 84.862 84.862h735.47c50.917 0 84.862-39.602 84.862-84.862v-735.47z" />
<glyph unicode="&#xe957;" glyph-name="pause" d="M512 960c-282.947 0-512-229.053-512-512s229.053-512 512-512 512 229.053 512 512-229.053 512-512 512zM512 892.632c107.789 0 208.842-40.421 282.947-101.053l-619.789-626.526c-67.368 80.842-107.789 175.158-107.789 289.684 0 235.789 202.105 437.895 444.632 437.895zM512 3.368c-107.789 0-208.842 40.421-289.684 107.789l619.789 633.263c67.368-80.842 107.789-181.895 107.789-289.684 6.737-249.263-195.368-451.368-437.895-451.368z" />
<glyph unicode="&#xe958;" glyph-name="people" d="M985.175-25.175c-4.853 9.706-145.592 266.919-397.953 320.303 145.592 33.972 257.213 169.858 257.213 330.009 0 184.417-150.445 339.716-339.716 339.716-184.417 0-339.716-150.445-339.716-339.716 0-155.299 106.768-286.332 247.507-325.156-262.066-48.531-378.54-310.597-383.393-320.303l-14.559-33.972h985.175l-14.559 29.118zM218.389 620.284c0 160.152 131.033 291.185 291.185 291.185s291.185-131.033 291.185-291.185c0-160.152-131.033-291.185-291.185-291.185s-291.185 131.033-291.185 291.185zM92.209-10.616c43.678 77.649 174.711 266.919 402.806 266.919 0 0 0 0 0 0 223.242 0 368.834-189.27 422.218-266.919h-825.024z" />
<glyph unicode="&#xe959;" glyph-name="person" d="M686.987 188.759c136.101 64.81 233.316 200.911 233.316 362.937 0 220.354-181.468 401.823-401.823 401.823s-408.304-174.987-408.304-401.823c0-168.506 103.696-311.089 246.278-369.418-174.987-64.81-298.127-200.911-304.608-207.392l45.367-45.367c0 0 207.392 220.354 434.228 220.354h6.481c226.835-6.481 388.861-213.873 388.861-213.873l51.848 38.886c-6.481 6.481-116.658 149.063-291.646 213.873zM174.987 551.696c0 187.949 149.063 337.013 337.013 337.013s337.013-149.063 337.013-337.013-149.063-337.013-337.013-337.013c-181.468 0-337.013 149.063-337.013 337.013z" />
<glyph unicode="&#xe95a;" glyph-name="phone" d="M714.323 960h-400.516c-94.968 0-169.29-74.323-169.29-169.29v-681.29c0-94.968 74.323-169.29 169.29-169.29h404.645c94.968 0 169.29 74.323 169.29 169.29v681.29c0 94.968-78.452 169.29-173.419 169.29zM516.129-26.839c-24.774 0-41.29 16.516-41.29 41.29s16.516 41.29 41.29 41.29 41.29-16.516 41.29-41.29-20.645-41.29-41.29-41.29zM846.452 97.032h-660.645v701.935h660.645v-701.935z" />
<glyph unicode="&#xe95b;" glyph-name="picture" d="M884.607 933.194h-750.576c-75.058 0-134.031-64.335-134.031-134.031v-696.963c0-75.058 58.974-134.031 134.031-134.031h750.576c75.058 0 134.031 58.974 134.031 134.031v696.963c0 69.696-58.974 134.031-134.031 134.031zM134.031 879.581h750.576c42.89 0 80.419-37.529 80.419-80.419v-369.927c-21.445 21.445-42.89 48.251-58.974 64.335-16.084 21.445-32.168 32.168-42.89 32.168-26.806 0-48.251-21.445-53.613-32.168-58.974-91.141-139.393-193.005-155.476-209.089-5.361-5.361-16.084-5.361-21.445 0 0 0-134.031 128.67-160.838 160.838-10.723 16.084-26.806 16.084-42.89 16.084-21.445 0-37.529-16.084-42.89-21.445l-332.398-235.895v595.099c0 42.89 37.529 80.419 80.419 80.419zM884.607 21.78h-750.576c-42.89 0-80.419 32.168-80.419 80.419v37.529l364.565 262.702 5.361 5.361c0 0 5.361 5.361 5.361 5.361s0 0 5.361-5.361c26.806-32.168 155.476-155.476 160.838-160.838 10.723-10.723 48.251-32.168 85.78-5.361 32.168 21.445 134.031 176.921 166.199 219.812 0 0 5.361 5.361 5.361 10.723 0 0 0 0 5.361-5.361 32.168-32.168 80.419-85.78 101.864-107.225v-257.34c5.361-48.251-32.168-80.419-75.058-80.419zM268.063 557.906c58.974 0 107.225 48.251 107.225 107.225s-48.251 107.225-107.225 107.225-107.225-48.251-107.225-107.225 48.251-107.225 107.225-107.225zM268.063 718.743c32.168 0 53.613-21.445 53.613-53.613s-21.445-53.613-53.613-53.613-53.613 21.445-53.613 53.613 26.806 53.613 53.613 53.613z" />
<glyph unicode="&#xe95c;" glyph-name="plus" d="M1024 512h-448v448h-128v-448h-448v-128h448v-448h128v448h448z" />
<glyph unicode="&#xe95d;" glyph-name="plus1" d="M1024 533.333h-426.667v426.667h-170.667v-426.667h-426.667v-170.667h426.667v-426.667h170.667v426.667h426.667z" />
<glyph unicode="&#xe95e;" glyph-name="prestore" d="M1021.956 647.281v0c0 94.020-75.625 169.645-169.645 169.645h-682.667c-91.976 0-169.645-75.625-169.645-169.645v0h1021.956zM0 545.086h1021.956v-40.878h-1021.956v40.878zM0 459.242v-188.040c0-94.020 77.669-169.645 169.645-169.645h682.667c94.020 0 169.645 75.625 169.645 169.645v188.040h-1021.956zM960.639 240.543c0-24.527-18.395-42.922-42.922-42.922h-138.986c-24.527 0-42.922 18.395-42.922 42.922v36.79c0 24.527 18.395 42.922 42.922 42.922h138.986c24.527 0 42.922-18.395 42.922-42.922v-36.79z" />
<glyph unicode="&#xe95f;" glyph-name="print" d="M886.387 781.913h-64.759v48.569c0 68.806-56.664 125.47-125.47 125.47h-327.842c-68.806 0-125.47-56.664-125.47-125.47v-48.569h-64.759c-60.711 0-109.281-48.569-109.281-109.281v-226.656c0-60.711 48.569-109.281 109.281-109.281h64.759v-275.225c0-68.806 56.664-125.47 125.47-125.47h331.889c68.806 0 125.47 56.664 125.47 125.47v275.225h64.759c60.711 0 109.281 48.569 109.281 109.281v226.656c-4.047 60.711-52.617 109.281-113.328 109.281zM319.747 830.482c0 24.285 20.237 44.522 44.522 44.522h331.889c24.285 0 44.522-20.237 44.522-44.522v-48.569h-420.933v48.569zM744.727 65.518c0-24.285-20.237-44.522-44.522-44.522h-331.889c-24.285 0-44.522 20.237-44.522 44.522v331.889c0 24.285 20.237 44.522 44.522 44.522h331.889c24.285 0 44.522-20.237 44.522-44.522v-331.889zM914.719 450.024c0-16.19-12.142-28.332-28.332-28.332h-64.759c-12.142 56.664-60.711 101.186-125.47 101.186h-327.842c-60.711 0-113.328-44.522-125.47-101.186h-64.759c-16.19 0-28.332 12.142-28.332 28.332v222.609c0 16.19 12.142 28.332 28.332 28.332h712.348c16.19 0 28.332-12.142 28.332-28.332v-222.609zM400.696 304.316h242.846v-40.474h-242.846v40.474zM400.696 182.893h242.846v-40.474h-242.846v40.474z" />
<glyph unicode="&#xe960;" glyph-name="print2" d="M917.61 773.818h-99.74v46.545c0 73.143-59.844 126.338-126.338 126.338h-352.416c-73.143 0-132.987-53.195-132.987-126.338v-46.545h-99.74c-53.195 0-99.74-46.545-99.74-99.74v-252.675c0-53.195 46.545-99.74 99.74-99.74h93.091v-272.623c0-53.195 46.545-99.74 99.74-99.74h425.558c53.195 0 99.74 46.545 99.74 99.74v272.623h93.091c53.195 0 99.74 46.545 99.74 99.74v252.675c0 53.195-39.896 99.74-99.74 99.74zM272.623 820.364c0 33.247 26.597 59.844 59.844 59.844h352.416c33.247 0 59.844-26.597 59.844-59.844v-46.545h-472.104v46.545zM758.026 49.039c0-19.948-13.299-33.247-33.247-33.247h-425.558c-19.948 0-33.247 13.299-33.247 33.247v345.766c0 19.948 13.299 33.247 33.247 33.247h425.558c19.948 0 33.247-13.299 33.247-33.247v-345.766zM950.857 421.403c0-19.948-13.299-33.247-33.247-33.247h-93.091v6.649c0 53.195-46.545 99.74-99.74 99.74h-425.558c-53.195 0-99.74-46.545-99.74-99.74v-6.649h-93.091c-19.948 0-33.247 13.299-33.247 33.247v252.675c0 19.948 13.299 33.247 33.247 33.247h811.221c19.948 0 33.247-13.299 33.247-33.247v-252.675zM312.519 221.922v-152.935h146.286v66.494h-79.792v172.883h79.792v66.494h-146.286zM565.195 308.364h79.792v-172.883h-79.792v-66.494h146.286v305.87h-146.286z" />
<glyph unicode="&#xe961;" glyph-name="radius-close" d="M1004.919 56.845l-400.696 394.335 394.335 394.335c25.441 25.441 25.441 69.963 0 95.404s-69.963 25.441-95.404 0l-394.335-394.335-394.335 381.615c-25.441 25.441-69.963 25.441-95.404 0s-25.441-69.963 0-95.404l394.335-387.975-387.975-394.335c-25.441-25.441-25.441-69.963 0-95.404s69.963-25.441 95.404 0l387.975 394.335 400.696-394.335c25.441-25.441 69.963-25.441 95.404 0 25.441 31.801 25.441 69.963 0 101.764z" />
<glyph unicode="&#xe962;" glyph-name="refund" d="M795.289 835.249h-623.756l103.959 77.97c10.396 10.396 15.594 25.99 5.198 36.386-5.198 10.396-25.99 15.594-36.386 5.198l-166.335-124.751c-10.396-5.198-10.396-15.594-10.396-20.792s5.198-15.594 10.396-20.792l166.335-124.751c5.198-5.198 10.396-5.198 15.594-5.198 10.396 0 15.594 5.198 20.792 10.396 10.396 10.396 5.198 25.99-5.198 36.386l-103.959 77.97h623.756c41.584 0 77.97-36.386 77.97-77.97v-634.152c0-41.584-36.386-77.97-77.97-77.97h-628.954v-51.98h628.954c72.772 0 129.949 57.178 129.949 129.949v634.152c0 67.574-62.376 129.949-129.949 129.949zM353.462 674.112h51.98v-103.959h-51.98v103.959zM561.381 674.112h51.98v-103.959h-51.98v103.959zM249.503 362.234v-51.98h207.919v-207.919h51.98v207.919h207.919v51.98h-207.919v103.959h207.919v51.98h-467.817v-51.98h207.919v-103.959z" />
<glyph unicode="&#xe963;" glyph-name="rejected" d="M946.717 897.208h-869.434c-43.472 0-72.453-33.811-72.453-72.453v-821.132c0-9.66 9.66-19.321 19.321-24.151 0 0 4.83 0 4.83 0 9.66 0 19.321 4.83 19.321 14.491 33.811 77.283 135.245 115.925 169.057 130.415 4.83 0 9.66 0 14.491 0h714.868c38.642 0 72.453 33.811 72.453 72.453v627.925c0 38.642-33.811 72.453-72.453 72.453zM970.868 196.83c0-14.491-9.66-24.151-24.151-24.151h-734.189c-4.83 0-96.604-28.981-164.226-91.774v743.849c0 14.491 9.66 24.151 24.151 24.151h869.434c14.491 0 24.151-9.66 24.151-24.151v-627.925zM270.491 655.698h483.019v-48.302h-483.019v48.302zM270.491 510.792h483.019v-48.302h-483.019v48.302z" />
<glyph unicode="&#xe964;" glyph-name="rejected2" d="M297.448 740.571h390.095v-48.762h-390.095v48.762zM297.448 594.286h390.095v-48.762h-390.095v48.762zM994.743 428.495l-34.133 34.133-151.162-151.162-156.038 151.162-34.133-34.133 156.038-151.162-156.038-156.038 34.133-34.133 156.038 156.038 151.162-156.038 34.133 34.133-151.162 156.038zM906.971 9.143c0-14.629-9.752-24.381-24.381-24.381h-780.19c-14.629 0-24.381 9.752-24.381 24.381v877.714c0 14.629 9.752 24.381 24.381 24.381h780.19c14.629 0 24.381-9.752 24.381-24.381v-243.81h48.762v243.81c0 39.010-34.133 73.143-73.143 73.143h-780.19c-39.010 0-73.143-34.133-73.143-73.143v-877.714c0-39.010 34.133-73.143 73.143-73.143h780.19c39.010 0 73.143 34.133 73.143 73.143v48.762h-48.762v-48.762z" />
<glyph unicode="&#xe965;" glyph-name="renewal" d="M929.185 756.148c-4.741 0-303.407 18.963-388.741 165.926l-18.963 33.185-23.704-28.444c0 0-137.481-175.407-388.741-170.667h-23.704v-493.037c0-4.741 71.111-317.63 417.185-317.63 4.741 0 9.481 0 14.222 0 355.556 9.481 426.667 308.148 426.667 308.148l4.741 502.519h-18.963zM900.741 258.37c-4.741-28.444-75.852-260.741-379.259-270.222-308.148-9.481-374.519 251.259-384 279.704v440.889c203.852 4.741 331.852 113.778 379.259 165.926 94.815-123.259 312.889-156.444 384-161.185v-455.111zM308.148 471.704l-33.185-33.185 199.111-199.111 303.407 303.407-33.185 33.185-270.222-270.222z" />
<glyph unicode="&#xe966;" glyph-name="reset" d="M976.896 417.28c55.296 55.296 57.344 147.456 0 202.752l-247.808 251.904c-55.296 55.296-147.456 57.344-202.752 0l-481.28-475.136c-55.296-55.296-57.344-147.456 0-202.752l186.368-188.416c6.144-6.144 12.288-8.192 18.432-12.288v-2.048h10.24c2.048 0 2.048 0 4.096 0s2.048 0 4.096 0h749.568v96.256h-372.736l331.776 329.728zM593.92 804.352c18.432 18.432 49.152 18.432 67.584 0l249.856-251.904c18.432-18.432 18.432-49.152 0-67.584l-327.68-323.584-319.488 317.44 329.728 325.632zM112.64 259.584c-18.432 18.432-18.432 49.152 0 67.584l81.92 81.92 319.488-317.44-6.144-6.144h-225.28l-169.984 174.080z" />
<glyph unicode="&#xe967;" glyph-name="reset-line" d="M734.928 832.612l-34.297-34.297 210.679-225.378h-886.813v-48.995h999.502zM293.971 53.589l34.297 34.297-215.579 225.378h891.713v48.995h-1004.402z" />
<glyph unicode="&#xe968;" glyph-name="role" d="M509.453 960c-280.199 0-509.453-229.254-509.453-509.453s229.254-509.453 509.453-509.453 509.453 229.254 509.453 509.453-229.254 509.453-509.453 509.453zM509.453-7.96c-254.726 0-458.507 203.781-458.507 458.507s203.781 458.507 458.507 458.507 458.507-203.781 458.507-458.507-208.876-458.507-458.507-458.507zM545.114 526.965l66.229 275.104h-213.97l56.040-275.104-152.836-280.199 208.876-219.065 198.687 219.065-163.025 280.199zM545.114 751.124l-45.851-193.592-40.756 193.592h86.607zM504.358 104.119l-142.647 152.836 122.269 224.159h35.662l127.363-224.159-142.647-152.836z" />
<glyph unicode="&#xe969;" glyph-name="rule" d="M509.573 960c-281.479 0-509.573-228.095-509.573-509.573s228.095-509.573 509.573-509.573 509.573 228.095 509.573 509.573-228.095 509.573-509.573 509.573zM509.573-10.616c-252.36 0-461.043 203.829-461.043 461.043s208.682 461.043 461.043 461.043 461.043-208.682 461.043-461.043-203.829-461.043-461.043-461.043zM461.043 693.081h97.062v-97.062h-97.062v97.062zM461.043 498.957h97.062v-291.185h-97.062v291.185z" />
<glyph unicode="&#xe96a;" glyph-name="sad" d="M512 960c-281.6 0-512-230.4-512-512s230.4-512 512-512 512 230.4 512 512-230.4 512-512 512zM512-12.8c-256 0-460.8 204.8-460.8 460.8s204.8 460.8 460.8 460.8 460.8-204.8 460.8-460.8-209.92-460.8-460.8-460.8zM614.4 586.24h102.4v-102.4h-102.4v102.4zM307.2 586.24h102.4v-102.4h-102.4v102.4zM532.48 320c-179.2 5.12-225.28-112.64-230.4-117.76l46.080-20.48c0 0 35.84 87.040 179.2 87.040 143.36-5.12 179.2-81.92 184.32-87.040l46.080 20.48c0 5.12-46.080 112.64-225.28 117.76z" />
<glyph unicode="&#xe96b;" glyph-name="safeguard" d="M512 603.152c-82.747 0-149.98-67.232-149.98-149.98s67.232-149.98 149.98-149.98 149.98 67.232 149.98 149.98c0 77.576-67.232 149.98-149.98 149.98zM512 960c-284.444 0-512-227.556-512-512s227.556-512 512-512 512 227.556 512 512-227.556 512-512 512zM874.020 396.283h-113.778c-5.172-31.030-20.687-62.061-36.202-87.919l77.576-77.576-72.404-72.404-77.576 77.576c-25.859-15.515-56.889-31.030-87.919-36.202v-113.778h-103.434v113.778c-31.030 5.172-62.061 20.687-87.919 36.202l-82.747-82.747-72.404 72.404 82.747 82.747c-15.515 25.859-31.030 56.889-36.202 87.919h-113.778v103.434h113.778c5.172 31.030 15.515 62.061 36.202 87.919l-82.747 82.747 72.404 72.404 77.576-77.576c31.030 15.515 62.061 25.859 93.091 36.202v108.606h103.434v-113.778c31.030-5.172 62.061-20.687 87.919-36.202l82.747 82.747 72.404-72.404-82.747-82.747c15.515-25.859 31.030-56.889 36.202-87.919h113.778v-103.434z" />
<glyph unicode="&#xe96c;" glyph-name="d-arrow-left" d="M505.856 413.184l436.224-454.656c10.24-10.24 20.48-14.336 32.768-14.336 10.24 0 22.528 4.096 30.72 12.288 18.432 18.432 18.432 45.056 2.048 63.488l-407.552 423.936 407.552 432.128c16.384 18.432 16.384 47.104-2.048 63.488-16.384 16.384-45.056 14.336-61.44-2.048l-436.224-462.848c-16.384-16.384-16.384-45.056-2.048-61.44zM12.288 413.184l436.224-454.656c10.24-10.24 20.48-14.336 32.768-14.336 10.24 0 22.528 4.096 30.72 12.288 18.432 18.432 18.432 45.056 2.048 63.488l-405.504 423.936 407.552 432.128c16.384 18.432 16.384 47.104-2.048 63.488s-47.104 16.384-63.488-2.048l-436.224-462.848c-16.384-16.384-16.384-45.056-2.048-61.44z" />
<glyph unicode="&#xe96d;" glyph-name="d-arrow-right" d="M514.048 474.624l-436.224 462.848c-16.384 16.384-45.056 18.432-61.44 2.048-18.432-16.384-18.432-45.056-2.048-63.488l407.552-432.128-407.552-423.936c-16.384-18.432-16.384-45.056 2.048-63.488 8.192-8.192 20.48-12.288 30.72-12.288 12.288 0 22.528 4.096 32.768 14.336l436.224 454.656c14.336 16.384 14.336 45.056-2.048 61.44zM1007.616 474.624l-436.224 462.848c-16.384 18.432-45.056 18.432-63.488 2.048s-18.432-45.056-2.048-63.488l407.552-432.128-405.504-423.936c-16.384-18.432-16.384-45.056 2.048-63.488 8.192-8.192 20.48-12.288 30.72-12.288 12.288 0 22.528 4.096 32.768 14.336l436.224 454.656c14.336 16.384 14.336 45.056-2.048 61.44z" />
<glyph unicode="&#xe96e;" glyph-name="more" d="M225.28 448c0-61.078-49.514-110.592-110.592-110.592s-110.592 49.514-110.592 110.592c0 61.078 49.514 110.592 110.592 110.592s110.592-49.514 110.592-110.592zM624.64 448c0-61.078-49.514-110.592-110.592-110.592s-110.592 49.514-110.592 110.592c0 61.078 49.514 110.592 110.592 110.592s110.592-49.514 110.592-110.592zM1019.904 448c0-61.078-49.514-110.592-110.592-110.592s-110.592 49.514-110.592 110.592c0 61.078 49.514 110.592 110.592 110.592s110.592-49.514 110.592-110.592z" />
<glyph unicode="&#xe96f;" glyph-name="share" d="M815.104 204.288c-43.008 0-79.872-20.48-104.448-51.2l-389.12 282.624c2.048 10.24 4.096 18.432 4.096 28.672 0 4.096 0 8.192-2.048 10.24l434.176 239.616c20.48-14.336 47.104-22.528 73.728-22.528 71.68 0 131.072 59.392 131.072 131.072s-59.392 131.072-131.072 131.072c-71.68 0-131.072-59.392-131.072-131.072 0-14.336 2.048-28.672 6.144-40.96l-417.792-229.376c-24.576 26.624-57.344 43.008-96.256 43.008-71.68 0-131.072-59.392-131.072-131.072s59.392-131.072 131.072-131.072c32.768 0 61.44 12.288 83.968 30.72l407.552-294.912c2.048-69.632 59.392-126.976 131.072-126.976s131.072 59.392 131.072 131.072c0 73.728-57.344 131.072-131.072 131.072z" />
<glyph unicode="&#xe970;" glyph-name="message-log" d="M870.4 611.84v155.648c0 38.912-32.768 69.632-71.68 69.632h-727.040c-36.864 0-69.632-30.72-69.632-69.632v-415.744c0-38.912 30.72-69.632 69.632-69.632h100.352v-188.416c0-14.336 8.192-26.624 22.528-32.768 6.144-2.048 10.24-2.048 14.336-2.048 10.24 0 18.432 4.096 24.576 10.24l198.656 212.992h137.216c38.912-77.824 120.832-133.12 212.992-133.12 131.072 0 239.616 106.496 239.616 239.616 0 102.4-63.488 188.416-151.552 223.232zM415.744 351.744c-10.24 0-18.432-4.096-24.576-10.24l-147.456-159.744v135.168c0 18.432-16.384 34.816-34.816 34.816h-137.216v415.744h727.040v-139.264c-6.144 0-12.288 0-18.432 0-131.072 0-239.616-106.496-239.616-239.616 0-12.288 2.048-24.576 4.096-38.912h-129.024zM782.336 218.624c-94.208 0-169.984 75.776-169.984 169.984s75.776 169.984 169.984 169.984 169.984-75.776 169.984-169.984-77.824-169.984-169.984-169.984zM765.952 386.56h-104.448v-34.816h139.264v139.264h-34.816zM176.128 697.856h415.744v-34.816h-415.744v34.816zM176.128 593.408h311.296v-34.816h-311.296v34.816zM176.128 491.008h243.712v-34.816h-243.712v34.816z" />
<glyph unicode="&#xe971;" glyph-name="arrow-left" d="M264.192 474.624l442.368 468.992c16.384 18.432 45.056 18.432 63.488 2.048s18.432-45.056 2.048-63.488l-413.696-438.272 411.648-430.080c16.384-18.432 16.384-47.104-2.048-63.488-8.192-8.192-20.48-12.288-30.72-12.288-12.288 0-24.576 4.096-32.768 14.336l-440.32 460.8c-16.384 18.432-16.384 45.056 0 61.44z" />
<glyph unicode="&#xe972;" glyph-name="arrow-right" d="M772.096 474.624l-442.368 468.992c-16.384 18.432-45.056 18.432-63.488 2.048s-18.432-45.056-2.048-63.488l411.648-438.272-411.648-430.080c-16.384-18.432-16.384-47.104 2.048-63.488 8.192-8.192 20.48-12.288 30.72-12.288 12.288 0 24.576 4.096 32.768 14.336l442.368 460.8c16.384 18.432 16.384 45.056 0 61.44z" />
<glyph unicode="&#xe973;" glyph-name="clue" d="M954.368 505.344l67.584 8.192c-30.72 227.328-210.944 409.6-438.272 442.368l-10.24-67.584c198.656-26.624 354.304-184.32 380.928-382.976zM575.488 5.632l10.24-67.584c223.232 30.72 397.312 200.704 434.176 423.936l-67.584 12.288c-32.768-194.56-184.32-342.016-376.832-368.64zM71.68 372.224l-67.584-10.24c36.864-219.136 217.088-393.216 438.272-423.936l10.24 67.584c-192.512 26.624-348.16 178.176-380.928 366.592zM448.512 888.32l14.336 2.048-8.192 67.584-16.384-2.048c-227.328-32.768-407.552-215.040-436.224-442.368l67.584-8.192c26.624 196.608 182.272 354.304 378.88 382.976zM276.48 486.912l67.584-12.288c10.24 65.536 59.392 118.784 122.88 137.216l-18.432 65.536c-90.112-22.528-157.696-98.304-172.032-190.464zM344.064 409.088l-67.584-14.336c20.48-90.112 90.112-161.792 180.224-182.272l14.336 67.584c-61.44 14.336-112.64 65.536-126.976 129.024zM745.472 390.656l-67.584 16.384c-14.336-63.488-65.536-112.64-129.024-126.976l14.336-67.584c90.112 20.48 159.744 90.112 182.272 178.176zM679.936 482.816l67.584 14.336c-16.384 81.92-77.824 149.504-155.648 178.176l-22.528-65.536c55.296-20.48 98.304-69.632 110.592-126.976z" />
<glyph unicode="&#xe974;" glyph-name="contact" d="M747.52 957.952h-471.040c-63.488 0-114.688-51.2-114.688-114.688v-788.48c0-63.488 51.2-114.688 114.688-114.688h471.040c63.488 0 114.688 51.2 114.688 114.688v788.48c0 63.488-51.2 114.688-114.688 114.688zM276.48 894.464h471.040c28.672 0 51.2-22.528 51.2-51.2v-108.544h-573.44v108.544c0 26.624 22.528 51.2 51.2 51.2zM798.72 671.232v-446.464h-573.44v446.464h573.44zM747.52 1.536h-471.040c-28.672 0-51.2 22.528-51.2 51.2v108.544h573.44v-108.544c0-26.624-22.528-51.2-51.2-51.2zM448.512 97.792h126.976v-63.488h-126.976v63.488zM448.512 861.696h126.976v-63.488h-126.976v63.488z" />
<glyph unicode="&#xe975;" glyph-name="addclue" d="M407.552 863.744l-6.144 47.104c-202.752-26.624-366.592-184.32-399.36-387.072l47.104-8.192c28.672 182.272 176.128 325.632 358.4 348.16zM49.152 380.416l-47.104-8.192c32.768-204.8 202.752-364.544 409.6-387.072l6.144 47.104c-188.416 20.48-337.92 163.84-368.64 348.16zM880.64 448h47.104c0 223.232-157.696 413.696-374.784 456.704l-10.24-47.104c196.608-36.864 337.92-208.896 337.92-409.6zM385.024 675.328l-16.384 47.104c-94.208-30.72-163.84-108.544-186.368-202.752l47.104-12.288c18.432 77.824 77.824 143.36 155.648 167.936zM399.36 167.424l10.24 47.104c-94.208 20.48-167.936 96.256-184.32 192.512l-47.104-8.192c20.48-116.736 108.544-206.848 221.184-231.424zM526.336 161.28l-10.24 47.104c94.208 20.48 167.936 96.256 184.32 192.512l47.104-8.192c-20.48-114.688-106.496-204.8-221.184-231.424zM700.416 472.576l47.104 4.096c-12.288 116.736-90.112 212.992-202.752 247.808l-12.288-45.056c92.16-28.672 159.744-110.592 167.936-206.848zM872.448 194.048v143.36h-49.152v-143.36h-143.36v-49.152h143.36v-143.36h49.152v143.36h143.36v49.152z" />
<glyph unicode="&#xe976;" glyph-name="dormant" d="M512 953.856c-278.528 0-505.856-227.328-505.856-505.856s227.328-505.856 505.856-505.856 505.856 227.328 505.856 505.856-227.328 505.856-505.856 505.856zM512 11.776c-241.664 0-436.224 196.608-436.224 436.224s194.56 436.224 436.224 436.224 436.224-194.56 436.224-436.224-196.608-436.224-436.224-436.224zM319.488 675.328v-69.632h276.48l-278.528-348.16h421.888v69.632h-276.48l278.528 348.16z" />
<glyph unicode="&#xe977;" glyph-name="details" d="M839.68 953.856h-655.36c-83.968 0-151.552-67.584-151.552-151.552v-706.56c0-83.968 67.584-151.552 151.552-151.552h655.36c83.968 0 151.552 67.584 151.552 151.552v706.56c2.048 83.968-67.584 151.552-151.552 151.552zM890.88 93.696c0-28.672-22.528-51.2-51.2-51.2h-655.36c-28.672 0-51.2 22.528-51.2 51.2v708.608c0 28.672 22.528 51.2 51.2 51.2h655.36c28.672 0 51.2-22.528 51.2-51.2v-708.608zM688.128 699.904h-352.256c-28.672 0-51.2-22.528-51.2-51.2s22.528-51.2 51.2-51.2h354.304c28.672 0 51.2 22.528 51.2 51.2s-24.576 51.2-53.248 51.2zM688.128 499.2h-352.256c-28.672 0-51.2-22.528-51.2-51.2s22.528-51.2 51.2-51.2h354.304c28.672 0 51.2 22.528 51.2 51.2s-24.576 51.2-53.248 51.2zM638.976 296.448h-303.104c-28.672 0-51.2-22.528-51.2-51.2s22.528-51.2 51.2-51.2h303.104c28.672 0 51.2 22.528 51.2 51.2-2.048 28.672-24.576 51.2-51.2 51.2z" />
<glyph unicode="&#xe978;" glyph-name="resubmit" d="M567.296 898.56c-247.808 0-450.56-202.752-450.56-450.56l-28.672 24.576c-14.336 20.48-40.96 24.576-61.44 12.288-20.48-14.336-24.576-40.96-12.288-61.44l108.544-112.64c8.192-12.288 20.48-18.432 34.816-18.432 0 0 2.048 0 2.048 0 12.288 0 24.576 6.144 32.768 16.384l112.64 135.168c16.384 18.432 12.288 47.104-6.144 61.44-18.432 16.384-47.104 12.288-61.44-6.144l-34.816-40.96c6.144 194.56 165.888 352.256 364.544 352.256 200.704 0 362.496-163.84 362.496-362.496s-163.84-362.496-362.496-362.496c-92.16 0-180.224 34.816-247.808 96.256l-59.392-65.536c83.968-77.824 192.512-120.832 307.2-120.832 249.856 0 450.56 202.752 450.56 450.56s-202.752 452.608-450.56 452.608zM600.064 216.576v290.816l45.056-45.056c8.192-8.192 20.48-12.288 30.72-12.288 12.288 0 22.528 4.096 30.72 12.288 16.384 16.384 16.384 45.056 0 61.44l-118.784 118.784c-16.384 16.384-45.056 16.384-61.44 0l-118.784-118.784c-16.384-16.384-16.384-45.056 0-61.44s45.056-16.384 61.44 0l45.056 45.056v-290.816h86.016z" />
<glyph unicode="&#xe979;" glyph-name="minus-radius" d="M509.952 960c-280.576 0-509.952-229.376-509.952-509.952s229.376-509.952 509.952-509.952 509.952 229.376 509.952 509.952-229.376 509.952-509.952 509.952zM757.76 398.848h-495.616v102.4h495.616v-102.4z" />
<glyph unicode="&#xe97a;" glyph-name="grant" d="M786.596 715.715l-489.042-429.363c0 0-17.306-31.191-72.458 0-55.153 31.212-217.354 137.155-217.354 137.155s-28.406 35.758 24.146 59.638c52.552 23.88 911.688 453.202 911.688 453.202s70.41 21.402 60.375-47.698c-10.015-69.1-181.125-924.303-181.125-924.303s-20.439-48.865-66.417-17.9c-45.978 30.966-217.354 149.094-217.354 149.094l-114.708-107.336c0 0-59.474-35.021-66.417 23.839s6.042 220.652 6.042 220.652l434.708 465.121c0 0 13.988 25.6-12.083 17.9z" />
<glyph unicode="&#xe97b;" glyph-name="verification" d="M929.28-64h-853.668c-7.066 0-12.8 5.734-12.8 12.8v63.017c0 7.086 5.734 12.8 12.8 12.8h853.668c7.066 0 12.8-5.714 12.8-12.8v-63.017c0-7.066-5.734-12.8-12.8-12.8zM61.44 289.075c0 22.63 18.33 40.96 40.96 40.96h255.017l74.629 293.089c-54.743 26.726-92.652 83.784-92.652 150.057 0 91.873 72.684 166.339 162.365 166.339s162.365-74.465 162.365-166.339c0-62.095-33.28-116.142-82.493-144.732l72.827-298.414h246.661c22.63 0 40.96-18.33 40.96-40.96v-178.545h-880.64v178.545z" />
<glyph unicode="&#xe97c;" glyph-name="cou-detail" d="M962.56-64h-901.12c-11.305 0-20.48 9.175-20.48 20.48v962.56c0 11.305 9.175 20.48 20.48 20.48h901.12c11.305 0 20.48-9.175 20.48-20.48v-962.56c0-11.305-9.175-20.48-20.48-20.48zM747.52 680.1c0 11.325-9.175 20.48-20.48 20.48h-430.080c-11.305 0-20.48-9.155-20.48-20.48v-54.6c0-11.325 9.175-20.48 20.48-20.48h430.080c11.305 0 20.48 9.155 20.48 20.48v54.6zM747.52 488.96c0 11.305-9.175 20.48-20.48 20.48h-430.080c-11.305 0-20.48-9.175-20.48-20.48v-54.62c0-11.305 9.175-20.48 20.48-20.48h430.080c11.305 0 20.48 9.175 20.48 20.48v54.62zM747.52 297.82c0 11.305-9.175 20.48-20.48 20.48h-430.080c-11.305 0-20.48-9.175-20.48-20.48v-54.62c0-11.305 9.175-20.48 20.48-20.48h430.080c11.305 0 20.48 9.175 20.48 20.48v54.62z" />
<glyph unicode="&#xe97d;" glyph-name="coupon" d="M880.64-43.52h-737.28c-22.63 0-40.96 18.33-40.96 40.96v717.988c0 22.61 18.33 40.96 40.96 40.96h87.798l-9.38-32.604c0 0-29.389-40.202 41.062-38.912 70.431 1.29 486.584 0 486.584 0s57.999-4.915 35.205 44.483c-5.325 11.53-9.359 20.193-12.534 27.034h108.544c22.63 0 40.96-18.35 40.96-40.96v-717.988c0-22.63-18.33-40.96-40.96-40.96zM726.548 561.418l-273.060-264.663-117.023 113.439-78.029-75.612 195.052-189.051 351.089 340.275-78.029 75.612zM313.569 833.884c0 6.144 5.263 11.121 11.735 11.121h36.332l18.514 83.395c0 6.144 5.263 11.121 11.735 11.121h177.746c6.492 0 11.735-4.977 11.735-11.121l18.534-83.395h48.046c6.472 0 11.735-4.977 11.735-11.121l15.073-53.576-375.132 3.994 13.947 49.582z" />
<glyph unicode="&#xe97e;" glyph-name="allocation" d="M1003.52 537.375v-178.749l-104.428-18.985c-8.745-31.191-21.504-60.641-37.069-88.289l60.723-87.716-126.382-126.382-87.798 60.785c-27.607-15.544-57.016-28.283-88.187-36.987l-19.005-104.571h-178.749l-19.005 104.571c-32.502 9.093-63.222 22.344-91.832 38.81l-78.356-54.231-123.802 123.802 54.19 78.275c-16.527 28.652-29.798 59.392-38.912 91.935l-104.428 18.985v178.749l104.428 18.985c8.745 31.191 21.504 60.641 37.069 88.289l-60.723 87.716 126.382 126.382 87.798-60.785c27.607 15.544 57.016 28.283 88.187 36.987l19.005 104.571h178.749l19.005-104.571c32.502-9.093 63.222-22.344 91.832-38.81l78.356 54.231 123.802-123.802-54.19-78.275c16.527-28.652 29.798-59.412 38.912-91.935l104.428-18.985zM512 582.042c-74.035 0-134.042-60.006-134.042-134.042s60.006-134.042 134.042-134.042c74.035 0 134.042 60.006 134.042 134.042s-60.006 134.042-134.042 134.042z" />
<glyph unicode="&#xe97f;" glyph-name="all" d="M962.56-43.52h-319.488c-45.24 0-81.92 36.68-81.92 81.92v278.528c0 45.24 36.68 81.92 81.92 81.92h278.528c45.24 0 81.92-36.68 81.92-81.92v-319.488c0-22.63-18.33-40.96-40.96-40.96zM921.6 497.152h-278.528c-45.24 0-81.92 36.68-81.92 81.92v278.528c0 45.24 36.68 81.92 81.92 81.92h319.488c22.63 0 40.96-18.33 40.96-40.96v-319.488c0-45.24-36.68-81.92-81.92-81.92zM380.928-43.52h-319.488c-22.63 0-40.96 18.33-40.96 40.96v319.488c0 45.24 36.68 81.92 81.92 81.92h278.528c45.24 0 81.92-36.68 81.92-81.92v-278.528c0-45.24-36.68-81.92-81.92-81.92zM380.928 497.152h-278.528c-45.24 0-81.92 36.68-81.92 81.92v319.488c0 22.63 18.33 40.96 40.96 40.96h319.488c45.24 0 81.92-36.68 81.92-81.92v-278.528c0-45.24-36.68-81.92-81.92-81.92z" />
<glyph unicode="&#xe980;" glyph-name="money2" d="M880.64-43.52h-716.8c-22.63 0-40.96 18.33-40.96 40.96v717.988c0 22.61 18.33 40.96 40.96 40.96h84.582l-9.155-32.604c0 0-28.631-40.202 40.038-38.912 68.69 1.29 474.419 0 474.419 0s56.566-4.915 34.324 44.483c-5.202 11.53-9.114 20.193-12.227 27.034h104.817c22.63 0 40.96-18.35 40.96-40.96v-717.988c0-22.63-18.33-40.96-40.96-40.96zM693.391 296.755h-152.125v37.806h152.125v75.633h-114.094l76.063 151.224h-76.063l-76.083-113.418-76.063 113.418h-76.063l76.063-151.224h-114.094v-75.633h152.125v-37.806h-152.125v-75.612h152.125v-113.418h76.083v113.418h152.125v75.612zM328.786 833.884c0 6.144 5.12 11.121 11.428 11.121h35.41l18.063 83.395c0 6.144 5.14 11.121 11.448 11.121h173.302c6.308 0 11.428-4.977 11.428-11.121l18.063-83.395h46.858c6.328 0 11.448-4.977 11.448-11.121l14.684-53.576-365.732 3.994 13.599 49.582z" />
<glyph unicode="&#xe981;" glyph-name="colour" d="M906.486-54.579l-393.318 246.149-394.65-246.989c-9.728 7.496-16.118 19.149-16.118 32.379v942.080c0 22.63 18.33 40.96 40.96 40.96h737.28c22.63 0 40.96-18.33 40.96-40.96v-942.080c0-12.759-5.96-24.023-15.114-31.539zM588.288 615.199l-76.677 190.444-76.677-190.444-230.011-5.161 182.641-122.88-65.495-193.638 189.542 114.524 189.542-114.524-65.495 193.638 182.641 122.88-230.011 5.161z" />
<glyph unicode="&#xe982;" glyph-name="wx-card" d="M966.656-2.56l-888.832 112.026c-31.662 0-57.344 25.088-57.344 56.013v476.119c0 30.925 25.682 56.013 57.344 56.013l888.832-112.026c31.662 0 57.344-25.088 57.344-56.013v-476.119c0-30.945-25.682-56.013-57.344-56.013zM880.64 893.645c111.022 15.626 114.688-27.996 114.688-27.996v-168.038l-888.832 84.009c0 0 663.122 96.42 774.144 112.026z" />
<glyph unicode="&#xe983;" glyph-name="alarm" horiz-adv-x="888" d="M493.476 93.082h-493.97v74.589c14.754 40.826 44.076 73.357 81.541 91.945l0.952 0.427v296.382c17.3 134.804 107.493 244.939 229.206 290.631l2.466 0.812c2.54 29.147 15.275 54.916 34.572 74.089l0.006 0.006c25.986 23.003 60.364 37.050 98.021 37.050 0.272 0 0.543-0.001 0.814-0.002h-0.042v-49.397c-23.458-0.59-44.783-9.268-61.397-23.336l0.144 0.119c-13.471-13.933-21.773-32.937-21.773-53.88 0-0.855 0.014-1.708 0.041-2.556l-0.003 0.124v-19.759l-19.265-4.446c-113.323-35.194-196.927-132.379-211.762-250.939l-0.151-1.479v-327.996l-16.795-5.434c-30.335-11.966-54.141-34.968-66.877-63.937l-0.303-0.773v-12.843h444.573zM888.158 93.082h-444.573v49.397h395.176v12.843c-13.039 29.742-36.845 52.744-66.364 64.425l-0.816 0.285-16.795 5.928v331.948c-16.458 117.907-99.48 212.84-209.295 246.426l-2.124 0.559-19.265 4.446v21.241c0.052 1.057 0.082 2.295 0.082 3.54 0 42.286-34.279 76.565-76.565 76.565-1.245 0-2.483-0.030-3.713-0.088l0.174 0.007v49.397c1.274 0.047 2.77 0.073 4.273 0.073 64 0 116.763-48.107 124.102-110.133l0.057-0.589c123.21-45.393 213.035-153.832 230.972-285.156l0.206-1.841v-302.804c38.386-19.059 67.692-51.574 82.13-91.232l0.363-1.14v-7.904zM439.139-64.494c-122.999 0-177.829 116.083-189.685 177.335l49.397 9.385c0-5.434 28.65-137.324 141.275-137.324zM435.682-64.494v49.397c113.613 0 141.275 135.842 141.275 137.324l49.397-9.385c-12.843-62.734-67.674-177.335-190.672-177.335z" />
<glyph unicode="&#xe984;" glyph-name="verification-list" d="M396.864 9.025h-224.832c-26.225-0.051-51.395 10.318-69.975 28.825s-29.046 43.638-29.097 69.862v678.848c0.158 54.671 44.401 98.972 99.072 99.2h678.4c54.631 0.142 99.052-43.993 99.264-98.624v-0.576l-1.6-192.64v-0.192c1.479-19.103 17.402-33.854 36.562-33.871s35.109 14.707 36.622 33.807l1.472 192.704v0.192c0 45.66-18.138 89.449-50.424 121.735s-76.076 50.425-121.735 50.425h-678.56c-45.592 0.034-89.33-18.045-121.592-50.259s-50.406-75.925-50.44-121.517v-678.784c-0.107-45.686 18.023-89.527 50.368-121.792 32.269-32.339 76.107-50.469 121.792-50.368h224.832c20.165 0.036 36.483 16.411 36.448 36.576s-16.411 36.483-36.576 36.448zM803.776 629.696c13.079 0 25.164 6.977 31.703 18.304s6.539 25.281 0 36.608c-6.539 11.327-18.625 18.304-31.703 18.304l-584.512 0.192c-20.2 0-36.576-16.376-36.576-36.576s16.376-36.576 36.576-36.576l584.512-0.256zM219.328 432.736l182.784 0.064c13.089 0.047 25.207-6.898 31.784-18.215s6.61-25.284 0.088-36.633c-6.624-11.296-18.784-18.176-31.872-18.048l-182.784-0.128c-20.147 0-36.48 16.333-36.48 36.48s16.333 36.48 36.48 36.48zM752.389-64c-149.889 0-271.109 121.331-271.109 271.358s121.722 271.862 271.611 271.36c149.889 0 271.109-121.836 271.109-272.367 0-149.524-121.722-270.352-271.611-270.352zM886.59 305.853c-11.964 12.036-31.905 12.036-43.869 0l-134.599-135.406-40.878 41.123c-11.964 12.036-31.905 12.036-43.869 0s-11.964-32.096 0-44.132l63.311-63.691c5.982-6.018 13.958-9.027 21.935-9.027s15.953 3.009 21.935 9.027l2.493 2.508c0.997 0.502 1.994 1.505 2.493 2.508l151.549 152.457c11.964 12.538 11.964 32.598-0.499 44.634z" />
<glyph unicode="&#xe985;" glyph-name="filter-clear" d="M794.522 622.777c-0.325-2.838-0.651-4.693-0.868-7.531 45.449-79.024 45.232-170.491-21.477-241.002-1.952-2.074-5.532-2.183-7.593-0.109l-323.678 325.701c-2.061 2.074-1.952 5.676 0.108 7.64 69.964 67.236 160.971 67.454 239.504 21.612 2.712 0.327 4.664 0.546 7.376 0.873l204.36 205.201c29.504 29.47 77.123 29.47 106.519-0.109 29.396-29.689 29.396-77.714-0.108-107.294l-204.143-204.982zM249.671 788.247c0 35.807 28.847 64.835 64.432 64.835s64.432-29.027 64.432-64.835c0-35.807-28.847-64.835-64.432-64.835s-64.432 29.027-64.432 64.835zM639.95 71.792c0 44.849 36.132 81.207 80.703 81.207s80.703-36.358 80.703-81.207c0-44.849-36.132-81.207-80.703-81.207s-80.703 36.358-80.703 81.207zM819.687 157.583c0 24.414 19.669 44.205 43.931 44.205s43.931-19.791 43.931-44.205c0-24.414-19.669-44.205-43.931-44.205s-43.931 19.791-43.931 44.205zM383.416 647.554l322.702-324.61c2.386-2.401 2.929-6.003 1.193-8.95-17.464-28.051-105.434-176.713-128.972-373.181-0.217-1.637-1.952-2.51-3.363-1.746l-109.556 66.472c-0.976 0.655-1.41 1.856-0.868 2.947 10.305 21.721 108.905 229.541 98.817 219.39-10.63-10.697-78.859-83.608-129.948-158.157l-29.396-40.713c0 0-115.305 78.042-150.883 126.613-0.542 0.764-0.651 1.419 0 2.074 23.43 28.597 145.351 188.064 145.351 188.064l-207.288-125.085c-0.976-0.546-2.061-0.437-2.82 0.437-10.088 11.242-79.292 88.193-99.251 124.321-0.434 0.764-0.434 1.419 0.325 2.074 19.742 16.045 131.359 111.223 131.359 111.223l-157.175-55.994c-1.085-0.327-2.278 0.109-2.82 1.091l-58.141 109.804c-0.759 1.31-0.217 2.947 1.302 3.274 27.66 5.567 258.487 53.811 370.538 131.634 2.82 1.965 6.508 1.528 8.895-0.982z" />
<glyph unicode="&#xe986;" glyph-name="filter" d="M883.67 803.779c21.050 30.95 22.137 71.325 2.783 103.362-19.264 32.849-54.581 52.43-94.392 52.43h-683.969c-39.598 0.107-74.914-19.474-94.178-52.323-20.142-33.464-17.94-75.805 5.565-107l224.529-250.7c13.921-15.407 21.658-35.412 21.725-56.175v-340.794c0-17.441 14.983-31.458 33.39-31.458 18.301 0 33.176 14.017 33.176 31.458v340.794c0 35.31-13.164 69.657-37.457 96.728l-222.71 248.56c-7.106 11.703-7.106 26.389 0 38.092 7.705 12.626 21.404 20.33 36.173 20.009h683.862c15.197 0 28.682-7.49 36.173-20.009 7.106-11.703 7.106-26.389 0-38.092l-223.031-248.56c-23.973-26.536-37.243-60.99-37.457-96.728v-521.089c0-17.227 14.983-31.351 33.283-31.351 18.408 0 33.39 14.124 33.39 31.458v520.982c0 20.544 7.705 40.446 21.725 56.175l224.636 250.593c1.013 1.145 1.943 2.361 2.783 3.638zM715.969 494.764c0-17.227 14.983-31.351 33.39-31.351h236.088c18.408 0 33.283 14.124 33.283 31.351 0 17.441-14.983 31.458-33.283 31.458h-235.981c-8.601 0.259-16.953-2.91-23.216-8.811s-9.923-14.047-10.175-22.647h-0.107zM985.447 180.399h-235.981c-17.872 0.54-32.809-13.484-33.39-31.351 0-17.334 14.983-31.458 33.39-31.458h236.088c18.408 0 33.283 14.017 33.283 31.458 0 17.334-14.983 31.351-33.283 31.351h-0.107zM985.447 353.31h-235.981c-18.515 0-33.39-14.017-33.39-31.351 0-17.441 14.983-31.458 33.39-31.458h236.088c18.408 0 33.283 14.017 33.283 31.458 0 17.334-14.983 31.351-33.283 31.351h-0.107z" />
<glyph unicode="&#xe987;" glyph-name="distributed-list" d="M396.864 9.025c20.165 0.035 36.541-16.283 36.576-36.448s-16.283-36.541-36.448-36.576h-224.832c-45.685-0.1-89.523 18.029-121.792 50.368-32.345 32.265-50.476 76.105-50.368 121.792v678.784c0.034 45.592 18.178 89.303 50.44 121.517s76 50.293 121.592 50.259h678.56c45.66 0 89.449-18.138 121.735-50.425s50.424-76.076 50.424-121.735v-0.192l-1.472-192.704c-1.512-19.1-17.462-33.824-36.622-33.807s-35.084 14.768-36.562 33.871v0.192l1.6 192.64v0.576c-0.212 54.631-44.633 98.766-99.264 98.624h-678.4c-54.671-0.228-98.914-44.529-99.072-99.2v-678.848c0.051-26.225 10.517-51.355 29.097-69.862s43.75-28.876 69.975-28.825h224.832zM803.776 629.696l-584.512 0.256c-20.2 0-36.576 16.376-36.576 36.576s16.376 36.576 36.576 36.576l584.512-0.192c13.079 0 25.164-6.977 31.703-18.304s6.539-25.281 0-36.608c-6.539-11.327-18.625-18.304-31.703-18.304zM219.328 432.736l182.784 0.064c13.089 0.047 25.207-6.898 31.784-18.215s6.61-25.284 0.088-36.633c-6.624-11.296-18.784-18.176-31.872-18.048l-182.784-0.128c-20.147 0-36.48 16.333-36.48 36.48s16.333 36.48 36.48 36.48zM459.36 188.64c-22.304 7.072-23.168 20.832-1.728 30.656l535.808 250.624c21.152 9.952 34.336-1.184 29.6-23.872l-91.136-449.344c-4.768-23.2-23.872-30.656-42.592-16.704l-138.464 101.984-72.064-93.792c-14.048-18.56-25.568-14.048-25.568 9.376v113.408l283.52 269.216-328.288-239.296-149.088 47.744z" />
<glyph unicode="&#xe988;" glyph-name="audit-list" d="M396.864 9.025c20.165 0.035 36.541-16.283 36.576-36.448s-16.283-36.541-36.448-36.576h-224.832c-45.685-0.1-89.523 18.029-121.792 50.368-32.345 32.265-50.476 76.105-50.368 121.792v678.784c0.034 45.592 18.178 89.303 50.44 121.517s76 50.293 121.592 50.259h678.56c45.66 0 89.449-18.138 121.735-50.425s50.424-76.076 50.424-121.735v-0.192l-1.472-192.704c-1.512-19.1-17.462-33.824-36.622-33.807s-35.084 14.768-36.562 33.871v0.192l1.6 192.64v0.576c-0.212 54.631-44.633 98.766-99.264 98.624h-678.4c-54.671-0.228-98.914-44.529-99.072-99.2v-678.848c0.051-26.225 10.517-51.355 29.097-69.862s43.75-28.876 69.975-28.825h224.832zM803.776 629.696l-584.512 0.256c-20.2 0-36.576 16.376-36.576 36.576s16.376 36.576 36.576 36.576l584.512-0.192c13.079 0 25.164-6.977 31.703-18.304s6.539-25.281 0-36.608c-6.539-11.327-18.625-18.304-31.703-18.304zM219.328 432.736l182.784 0.064c13.089 0.047 25.207-6.898 31.784-18.215s6.61-25.284 0.088-36.633c-6.624-11.296-18.784-18.176-31.872-18.048l-182.784-0.128c-20.147 0-36.48 16.333-36.48 36.48s16.333 36.48 36.48 36.48zM537.952-2.317c-15.935 0-25.952-2.973-25.952 11.894v37.512c0 15.782 8.651 24.474 24.358 24.474h86.278c90.376 70.678 34.375 115.28 0 170.175-21.399 27.448-34.375 61.986-34.375 99.498 0 91.035 73.302 163.085 162.312 163.085 90.603 0 162.312-73.651 162.312-163.085 0-29.049-7.057-54.895-20.033-77.997-4.325-8.692-10.016-15.782-15.708-23.102-31.643-51.922-60.326-89.433-10.016-145.701 2.732-2.973 4.325-14.41 15.708-23.102h86.050c20.033 0 24.358-4.346 24.358-24.474v-36.139c0-16.011 1.366-11.665-12.976-13.038h-442.317zM1012.646-23.040c5.677 0 11.354-5.988 11.354-13.653v-13.653c0-7.665-5.677-13.653-12.944-13.653h-527.072c-7.267 0-12.944 5.988-12.944 13.653v13.653c0 7.665 5.677 13.653 12.944 13.653h528.662z" />
<glyph unicode="&#xe989;" glyph-name="shop" horiz-adv-x="1820" d="M113.778 960h1592.889c62.838 0 113.778-50.94 113.778-113.778v-796.444c0-62.838-50.94-113.778-113.778-113.778h-1592.889c-62.838 0-113.778 50.94-113.778 113.778v796.444c0 62.838 50.94 113.778 113.778 113.778zM459.162 441.004v-51.55h163.697v-203.254h-193.005v-52.286h448.201v52.286h-203.013v203.254h170.845v51.55h-170.845v136.975h-52.183v-136.975h-163.697zM344.074 408.601v-301.935h50.753v362.321c38.601 50.077 72.198 104.572 100.077 162.75h382.436v52.286h-359.562c12.867 31.666 23.59 64.805 33.597 98.681l-53.613 6.628c-10.008-36.085-22.875-71.433-37.171-105.309h-208.017v-52.286h183.712c-50.038-97.945-119.377-184.843-208.732-260.695l32.168-43.449c30.023 25.775 57.902 53.023 84.35 81.007zM1291.229 629.529v-245.23h-162.982v-274.687h50.753v36.821h301.66v-36.821h50.753v274.687h-188.001v107.518h235.895v50.077h-235.895v87.635h-52.183zM1179 196.511v138.448h301.66v-138.448h-301.66zM1295.518 787.86l-53.613-8.837c12.867-20.62 25.019-42.713 35.742-67.015h-262.344v-212.827c-1.43-150.231-23.59-267.323-65.765-351.275l38.601-35.348c50.038 97.208 75.772 226.083 77.917 386.624v161.277h526.833v51.55h-263.059c-11.437 27.984-22.875 53.759-34.312 75.852z" />
<glyph unicode="&#xe98a;" glyph-name="shop_leave" horiz-adv-x="1820" d="M113.778 960h1592.889c62.838 0 113.778-50.94 113.778-113.778v-796.444c0-62.838-50.94-113.778-113.778-113.778h-1592.889c-62.838 0-113.778 50.94-113.778 113.778v796.444c0 62.838 50.94 113.778 113.778 113.778zM722.252 483.871h-363.555v160.497h-50.271v-204.874h179.227c-5.829-17.751-10.928-35.502-16.757-51.773h-206.913v-281.055h50.271v232.979h138.428c-17.486-41.419-34.971-76.92-53.914-106.505-3.643-4.438-10.928-7.396-22.586-8.875l12.386-48.075c121.671 14.053 210.556 26.626 266.655 36.981 5.829-12.573 12.386-25.887 18.943-40.679l42.257 21.449c-25.5 51.773-53.185 100.588-82.328 145.705h133.328v-161.237c0-15.532-9.471-23.668-27.686-23.668l-57.557 2.219 13.114-50.294h61.2c40.8 0 61.2 20.709 61.2 60.649v220.406h-296.527c5.829 16.272 11.657 33.283 17.486 51.773h233.87v204.874h-50.271v-160.497zM618.067 339.646l-26.957-13.313c13.843-22.189 27.686-45.856 42.257-71.743-58.285-10.355-119.485-18.49-183.599-25.147 17.486 31.064 35.7 67.305 53.185 110.203h115.113zM422.811 659.161l-22.586-34.022c37.157-13.313 74.314-29.585 111.471-47.336-36.428-19.23-76.499-34.762-121.671-48.075l23.314-38.46c58.285 20.709 105.642 42.158 143.528 63.607 35.7-18.49 71.4-39.939 107.099-63.607l24.043 36.981c-29.143 18.49-59.014 36.241-90.342 52.513 24.771 17.751 50.271 38.46 75.771 62.128l-37.157 22.928c-24.771-23.668-51.728-44.377-81.599-63.607-42.257 20.709-85.971 39.939-131.871 56.951zM550.31 789.333l-53.914-8.875c8.743-16.272 17.486-33.283 25.5-52.513h-294.341v-49.554h625.11v49.554h-278.312c-7.286 22.928-15.3 43.637-24.043 61.388zM1285.434 628.836v-246.293h-166.113v-275.877h51.728v36.981h307.455v-36.981h51.728v275.877h-191.613v107.984h240.427v50.294h-240.427v88.014h-53.185zM1171.049 193.941v139.048h307.455v-139.048h-307.455zM1289.805 787.854l-54.642-8.875c13.114-20.709 25.5-42.898 36.428-67.305h-267.384v-213.749c-1.457-150.882-24.043-268.481-67.028-352.797l39.343-35.502c51 97.629 77.228 227.062 79.414 388.299v161.976h536.953v51.773h-268.112c-11.657 28.105-23.314 53.992-34.971 76.181z" />
<glyph unicode="&#xe98b;" glyph-name="official-account" horiz-adv-x="2389" d="M2240 960c82.475 0 149.333-50.94 149.333-113.778v-796.444c0-62.838-66.859-113.778-149.333-113.778h-2090.667c-82.475 0-149.333 50.94-149.333 113.778v796.444c0 62.838 66.859 113.778 149.333 113.778h2090.667zM2078.72 575.431h-401.408v-46.421h178.859v-297.643c-6.827 1.365-13.653 3.413-19.797 5.461-49.152 15.701-90.112 52.565-122.88 111.275 12.288 35.499 23.211 74.411 31.403 116.736l-47.787 8.192c-23.211-117.419-66.901-210.944-132.437-280.576l31.403-38.912c38.912 39.595 71.68 88.747 98.304 147.456 27.989-44.373 64.853-77.141 109.909-98.304 60.075-25.259 158.379-38.229 296.277-38.229h76.459l8.875 49.152c-36.864-2.731-72.363-4.096-107.179-4.096-68.267 0.683-125.611 4.779-173.397 11.605v141.312h203.435v46.421h-203.435v120.149h173.397v46.421zM1484.8 750.194h-174.080v-594.603h45.739v549.547h83.285c-17.749-73.045-36.864-136.533-55.979-190.464 46.421-73.728 70.315-133.803 70.997-178.859 0-18.432-2.731-30.72-6.827-37.547-5.461-6.144-15.701-9.557-32.085-10.923-11.605 0-25.259 1.365-40.96 2.731l12.971-44.373c43.691 0 73.045 6.827 88.064 20.48 13.653 12.971 20.48 36.181 20.48 69.632-0.683 46.421-23.893 105.813-68.949 178.859 20.48 61.44 39.595 127.659 57.344 199.339v36.181zM1211.733 772.722h-47.104v-75.776h-75.776v-44.373h75.776v-96.939h-62.123v-44.373h62.123v-40.277l-1.568-36.662c-0.329-6.043-0.708-12.035-1.163-17.952h-73.728v-44.373h68.267c-13.653-79.872-45.056-141.312-94.208-184.32l36.181-31.403c55.979 49.835 90.795 121.515 105.813 215.723h83.285v44.373h-78.507c1.365 17.067 2.048 35.499 2.731 54.613v40.277h62.123v44.373h-62.123v96.939h70.315v44.373h-70.315v75.776zM740.693 742.002h-505.173v-47.787h455.339v-178.176h-378.88v101.035h-49.152v-358.4c0-55.979 27.307-84.651 82.603-84.651h370.005c28.672 1.365 51.2 8.875 66.219 23.211 16.384 17.749 27.989 68.267 34.816 152.917l-47.787 15.019-1.76-26.688c-4.629-58.837-12.917-93.632-24.864-104.384-10.24-8.192-23.893-12.288-40.277-12.288h-342.699c-31.403 0-47.104 15.701-47.104 45.739v201.387h428.715v273.067zM1078.613 290.759c-54.613-25.941-118.784-46.421-191.829-61.44l6.144-49.152c69.632 16.384 131.072 36.864 185.685 62.123v48.469zM978.944 779.548c-21.163-83.285-46.421-157.013-75.776-221.184-5.461-8.192-12.288-14.336-19.115-17.749l11.605-42.325c32.085 6.144 64.171 12.971 96.939 19.797l-14.674-30.837c-23.878-48.751-44.832-84.306-62.467-107.062-5.461-5.461-12.971-10.24-21.163-13.653l12.288-43.008c51.883 8.192 105.131 23.893 160.427 47.104v44.373c-34.133-14.336-68.267-25.941-102.4-34.816 34.133 49.835 77.141 132.437 128.341 248.491l-45.056 17.067-35.499-84.651c-24.576-5.461-49.152-9.557-73.045-13.653 29.355 53.248 58.027 124.245 86.699 213.675l-47.104 18.432zM1877.333 784.327l-52.565-8.192c12.288-20.48 23.893-43.008 34.133-67.584v0h-260.779v-148.821h47.787v103.765h462.848v-100.352h47.787v145.408h-247.808c-9.557 27.989-20.48 53.248-31.403 75.776v0z" />
</font>
</defs>
</svg>
